<?xml version="1.0" encoding="utf-8"?>
<!-- Generator: Adobe Illustrator 24.1.2, SVG Export Plug-In . SVG Version: 6.00 Build 0)  -->
<svg version="1.1" xmlns="http://www.w3.org/2000/svg" xmlns:xlink="http://www.w3.org/1999/xlink" x="0px" y="0px"
	 viewBox="0 0 750 500" style="enable-background:new 0 0 750 500;" xml:space="preserve">
<style type="text/css">
	.st0{fill:#EBEBEB;}
	.st1{fill:#E0E0E0;}
	.st2{fill:#F5F5F5;}
	.st3{display:none;}
	.st4{display:inline;fill:#E0E0E0;}
	.st5{fill:#263238;}
	.st6{fill:#455A64;}
	.st7{fill:#FAFAFA;}
	.st8{fill:#E8505B;}
	.st9{opacity:0.5;}
	.st10{opacity:0.4;}
	.st11{fill:#FFFFFF;}
	.st12{fill:none;stroke:#4E585D;stroke-width:0.05;stroke-miterlimit:10;}
	.st13{opacity:0.2;}
	.st14{fill:#B78876;}
	.st15{fill:#AA6550;}
	.st16{opacity:0.3;}
</style>
<g id="Background_Complete">
	<g>
		<g>
			<g>
				<path class="st0" d="M686.46,178.67c2.54,2.61,3.64,6.4,3.48,10.04c-0.16,3.64-1.48,7.15-3.24,10.34
					c-3.4,6.18-9.77,11.2-15.86,14.75c-3.5-7-1.34-15.83,0.04-20.23C673.05,186.61,681.21,175.35,686.46,178.67"/>
			</g>
		</g>
		<g>
			<g>
				<path class="st0" d="M672.79,227.11c0.63-4.02,3.81-7.41,7.65-8.76c3.84-1.35,8.2-0.79,11.84,1.03
					c1.68,0.85,3.35,2.12,3.76,3.96c0.38,1.72-0.49,3.54-1.84,4.67c-1.35,1.13-3.09,1.67-4.83,1.97
					C683.42,231.01,677.48,230.91,672.79,227.11"/>
			</g>
		</g>
		<g>
			<g>
				<g>
					<path class="st1" d="M657.63,244.1c-0.03-0.02,0.24-0.46,0.74-1.25c0.56-0.87,1.27-1.98,2.14-3.33
						c1.84-2.76,4.38-6.75,8.44-9.97c4.02-3.22,8.51-4.97,11.85-5.38c1.67-0.23,3.04-0.21,3.97-0.11c0.47,0.03,0.83,0.12,1.07,0.15
						c0.24,0.04,0.37,0.08,0.37,0.09c0,0.12-2.08-0.32-5.36,0.22c-3.27,0.49-7.64,2.25-11.59,5.42c-3.97,3.15-6.54,7.06-8.46,9.77
						c-0.95,1.37-1.72,2.48-2.27,3.24C657.98,243.72,657.66,244.12,657.63,244.1z"/>
				</g>
			</g>
		</g>
		<g>
			<g>
				<g>
					<path class="st1" d="M681.01,187.8c0.02,0.01-0.04,0.22-0.17,0.61c-0.15,0.44-0.35,1.01-0.59,1.71
						c-0.52,1.48-1.3,3.62-2.28,6.25c-1.97,5.26-4.78,12.49-8.07,20.4c-3.29,7.91-6.44,15.01-8.78,20.11
						c-1.17,2.55-2.14,4.61-2.82,6.02c-0.33,0.67-0.59,1.2-0.8,1.62c-0.19,0.37-0.29,0.56-0.31,0.55c-0.02-0.01,0.06-0.21,0.22-0.59
						c0.18-0.43,0.42-0.98,0.71-1.66c0.66-1.5,1.57-3.56,2.68-6.09c2.26-5.14,5.35-12.25,8.64-20.16
						c3.29-7.91,6.16-15.11,8.21-20.34c1.01-2.57,1.83-4.67,2.43-6.19c0.28-0.69,0.5-1.24,0.68-1.68
						C680.9,187.99,680.99,187.8,681.01,187.8z"/>
				</g>
			</g>
		</g>
		<g>
			<g>
				<path class="st0" d="M661.73,227.18c1.98-8.35-0.39-17.61-6.14-23.98c-1.46-1.62-3.61-3.17-5.67-2.43
					c-2.06,0.74-2.73,3.32-2.77,5.51c-0.17,9.11,5.76,18.02,14.22,21.38"/>
			</g>
		</g>
		<g>
			<g>
				<g>
					<path class="st1" d="M653.95,209.71c0.03-0.02,0.36,0.33,0.95,0.98c0.3,0.33,0.66,0.73,1.02,1.23
						c0.36,0.51,0.83,1.05,1.24,1.73c0.42,0.67,0.9,1.39,1.32,2.22c0.46,0.81,0.86,1.72,1.27,2.68c0.77,1.94,1.45,4.15,1.82,6.53
						c0.35,2.39,0.36,4.7,0.18,6.78c-0.12,1.04-0.24,2.02-0.45,2.93c-0.16,0.92-0.42,1.74-0.64,2.5c-0.2,0.76-0.5,1.41-0.72,2
						c-0.21,0.59-0.45,1.07-0.65,1.46c-0.39,0.79-0.62,1.21-0.66,1.2c-0.1-0.05,0.82-1.77,1.68-4.77c0.2-0.75,0.43-1.57,0.57-2.48
						c0.2-0.89,0.29-1.87,0.4-2.89c0.15-2.05,0.13-4.32-0.22-6.66c-0.36-2.34-1.01-4.52-1.75-6.43c-0.39-0.95-0.77-1.85-1.21-2.66
						c-0.39-0.83-0.85-1.55-1.25-2.22C655.2,211.2,653.86,209.78,653.95,209.71z"/>
				</g>
			</g>
		</g>
	</g>
	<g>
		<g>
			<g>
				<path class="st0" d="M65.06,116.34c0,0-9.2,2.97-0.28,22.69c8.92,19.73,15.28,29.58,15.28,29.58s1.53,4.55-2.26,5.07
					c-3.8,0.52-12.02-1.19-13.92,3.33c-1.96,4.7,1.29,9.37,8.15,13.65c6.85,4.28,21.52,14.22,22.84,15.13
					c1.3,0.89,2.54,3.03,0.01,3.8c-2.53,0.77-21.27,1.84-20.23,10.7c1.04,8.86,22.09,17.66,24.37,18.67
					c2.28,1.01,2.79,2.02,2.54,3.28c-0.25,1.27-6.58,1.03-11.9,1.56c-5.32,0.52-11.39,2.06-10.36,7.12
					c1.03,5.06,13.22,16.17,43.87,20.63l14.34,1.14l8.39-11.77c16.41-26.28,15.82-42.75,12.62-46.81c-3.2-4.06-8.3-0.42-12.13,3.3
					c-3.84,3.72-7.75,8.7-8.88,8.07c-1.13-0.63-1.57-1.67-0.86-4.06c0.71-2.39,7.6-24.14,1.51-30.66
					c-6.09-6.52-19.02,7.08-21.24,8.52c-2.22,1.43-3.05-0.9-2.89-2.46c0.17-1.59,2.07-19.21,3.23-27.2c1.16-8-0.3-13.5-5.15-15.04
					c-4.68-1.48-8.69,5.9-11.54,8.46c-2.85,2.56-5.33-1.55-5.33-1.55s-3.41-11.23-12.69-30.79c-9.28-19.56-17.67-14.29-17.67-14.29"
					/>
			</g>
		</g>
		<g>
			<g>
				<g>
					<path class="st1" d="M138.1,276.12c-6.76-14.39-18.34-40.18-28.4-62.26c-10.06-22.08-19.18-42.06-25.87-56.48
						c-3.34-7.2-6.05-13.03-7.94-17.08c-0.93-2-1.65-3.57-2.15-4.64c-0.24-0.52-0.42-0.92-0.55-1.21c-0.12-0.27-0.17-0.42-0.17-0.42
						s0.08,0.13,0.21,0.4c0.14,0.28,0.34,0.68,0.59,1.19c0.52,1.07,1.27,2.62,2.23,4.61c1.93,4,4.69,9.82,8.06,17.02
						c6.76,14.39,15.93,34.35,25.99,56.43c10.06,22.08,21.6,47.89,28.28,62.31"/>
				</g>
			</g>
		</g>
		<g>
			<g>
				<g>
					<path class="st1" d="M75.3,179.88c0.01-0.03,0.36,0.09,0.99,0.33c0.63,0.23,1.52,0.6,2.62,1.06c2.2,0.93,5.21,2.29,8.51,3.85
						c3.24,1.55,6.18,2.95,8.42,4.02c1.01,0.48,1.87,0.88,2.56,1.2c0.61,0.28,0.93,0.45,0.92,0.48c-0.01,0.03-0.36-0.09-0.99-0.32
						c-0.63-0.24-1.52-0.6-2.62-1.08c-2.19-0.95-5.19-2.35-8.48-3.91c-3.25-1.53-6.19-2.91-8.44-3.96
						c-1.02-0.47-1.88-0.87-2.57-1.19C75.61,180.08,75.29,179.91,75.3,179.88z"/>
				</g>
			</g>
		</g>
		<g>
			<g>
				<g>
					<path class="st1" d="M100.34,189.95c-0.11-0.05,2.41-6.38,5.65-14.14c3.23-7.76,5.95-14.01,6.06-13.96
						c0.11,0.05-2.41,6.38-5.65,14.14C103.17,183.75,100.46,190,100.34,189.95z"/>
				</g>
			</g>
		</g>
		<g>
			<g>
				<g>
					<path class="st1" d="M114.26,224.55c-0.02-0.02,0.2-0.33,0.63-0.86c0.49-0.6,1.09-1.36,1.81-2.25c1.53-1.9,3.62-4.53,5.83-7.52
						c2.21-2.99,4.12-5.76,5.49-7.78c0.64-0.95,1.19-1.75,1.62-2.39c0.39-0.56,0.61-0.87,0.64-0.85c0.03,0.02-0.15,0.35-0.49,0.94
						c-0.34,0.59-0.85,1.44-1.5,2.47c-1.3,2.07-3.17,4.87-5.4,7.87c-2.21,3-4.35,5.61-5.95,7.46c-0.8,0.92-1.45,1.66-1.92,2.16
						C114.55,224.31,114.28,224.57,114.26,224.55z"/>
				</g>
			</g>
		</g>
		<g>
			<g>
				<g>
					<path class="st1" d="M89.6,220.44c0-0.03,0.35-0.01,0.98,0.06c0.72,0.09,1.6,0.2,2.65,0.34c2.23,0.3,5.31,0.75,8.71,1.27
						c3.4,0.52,6.47,1.02,8.69,1.4c1.03,0.19,1.91,0.35,2.63,0.48c0.62,0.12,0.96,0.2,0.95,0.23c0,0.03-0.35,0.01-0.98-0.06
						c-0.72-0.09-1.6-0.2-2.65-0.34c-2.23-0.3-5.31-0.75-8.71-1.27c-3.4-0.52-6.47-1.02-8.69-1.4c-1.03-0.19-1.91-0.35-2.63-0.48
						C89.94,220.55,89.6,220.47,89.6,220.44z"/>
				</g>
			</g>
		</g>
		<g>
			<g>
				<g>
					<path class="st1" d="M98.01,252.55c0-0.03,0.45,0,1.25,0.09c0.88,0.11,2.03,0.25,3.4,0.42c2.86,0.37,6.82,0.92,11.18,1.55
						c4.36,0.63,8.31,1.22,11.16,1.67c1.36,0.23,2.5,0.41,3.38,0.56c0.8,0.14,1.23,0.23,1.23,0.26c0,0.03-0.45,0-1.25-0.09
						c-0.88-0.11-2.03-0.25-3.4-0.42c-2.86-0.37-6.82-0.92-11.18-1.55c-4.36-0.63-8.31-1.22-11.16-1.67
						c-1.36-0.23-2.5-0.41-3.37-0.56C98.44,252.67,98,252.58,98.01,252.55z"/>
				</g>
			</g>
		</g>
		<g>
			<g>
				<g>
					<path class="st1" d="M128.87,256.78c-0.02-0.02,0.25-0.41,0.76-1.11c0.57-0.76,1.3-1.74,2.19-2.93
						c1.85-2.48,4.39-5.91,7.09-9.78c2.7-3.87,5.06-7.43,6.75-10.02c0.81-1.24,1.48-2.28,2-3.07c0.48-0.72,0.75-1.12,0.78-1.1
						c0.03,0.02-0.2,0.44-0.63,1.19c-0.43,0.75-1.07,1.83-1.88,3.15c-1.62,2.64-3.94,6.23-6.65,10.11c-2.7,3.88-5.29,7.28-7.2,9.72
						c-0.96,1.21-1.75,2.19-2.31,2.85C129.22,256.44,128.9,256.8,128.87,256.78z"/>
				</g>
			</g>
		</g>
	</g>
	<g>
		<g>
			<g>
				<g>
					<g>
						<path class="st2" d="M362.47,234.65c-25.62-12.89-35.26-42.31-38.26-69.56c-0.5-4.55-1.69-9.25-0.11-13.54
							c1.58-4.28,6.21-7.72,10.54-6.4c3.59,1.1,5.62,4.8,7.97,7.76c3.12,3.94,7.37,6.96,12.09,8.61c3.1,1.08,6.8,1.48,9.42-0.5
							c3.59-2.72,3.27-8.18,2.6-12.68c-1.27-8.39-2.53-16.77-3.8-25.16c-0.68-4.5-1.36-9.09-0.57-13.57
							c0.78-4.48,3.3-8.89,7.41-10.71c4.11-1.82,9.77-0.11,11.31,4.16c0.64,1.78,0.54,3.74,0.94,5.59c0.4,1.85,1.57,3.79,3.42,4.06
							c1.87,0.27,3.49-1.27,4.65-2.78c3.99-5.22,6.3-11.53,8.4-17.78c2.11-6.25,4.1-12.63,7.61-18.2
							c3.5-5.57,8.77-10.34,15.16-11.64c6.4-1.3,13.84,1.69,16.39,7.79c2.55,6.11-0.22,13.09-3.51,18.81
							c-4.88,8.49-10.98,16.25-18.05,22.98c-1.27,1.21-2.66,2.52-2.96,4.27c-0.54,3.14,2.73,5.71,5.84,6.27
							c3.52,0.63,7.11-0.24,10.68-0.34c3.57-0.09,7.6,0.9,9.41,4.03c2.51,4.34-0.64,9.72-3.97,13.42
							c-6.67,7.42-14.61,13.67-23.36,18.4c-3.14,1.69-6.47,3.26-8.8,5.97c-2.33,2.71-3.36,6.99-1.29,9.93
							c2.07,2.94,6.36,3.36,9.74,2.21c3.38-1.14,6.21-3.48,9.34-5.2c5.85-3.23,13.9-3.96,18.64,0.82c3.11,3.14,4.05,8,3.34,12.38
							c-0.71,4.38-2.86,8.38-5.22,12.12c-8.24,13.07-19.58,24.28-33.22,31.33C390.6,234.53,377.49,237.8,362.47,234.65"/>
					</g>
				</g>
			</g>
		</g>
		<g>
			<g>
				<g>
					<g>
						<g>
							<path class="st1" d="M367.01,216.63c2.01-14.27,5.52-29.72,9.74-45.76c1.07-4.01,2.13-7.96,3.17-11.86
								c1.05-3.89,2.09-7.75,3.34-11.46c2.47-7.44,5.41-14.4,8.41-20.92c3-6.52,6.08-12.61,9-18.27c2.94-5.66,5.77-10.89,8.56-15.54
								c5.55-9.33,10.9-16.31,14.77-20.95c1.93-2.33,3.49-4.09,4.56-5.26c0.52-0.56,0.92-1,1.23-1.33c0.28-0.3,0.43-0.44,0.44-0.43
								c0.01,0.01-0.12,0.18-0.38,0.49c-0.29,0.34-0.68,0.8-1.16,1.39c-1.03,1.21-2.55,3-4.44,5.36
								c-3.79,4.7-9.05,11.71-14.52,21.05c-2.75,4.66-5.55,9.89-8.45,15.55c-2.89,5.68-5.95,11.76-8.92,18.28
								c-2.97,6.51-5.88,13.45-8.33,20.85c-1.24,3.69-2.27,7.52-3.31,11.42c-1.04,3.9-2.09,7.85-3.16,11.86
								c-4.22,16.03-7.73,31.44-9.78,45.66"/>
						</g>
					</g>
				</g>
			</g>
		</g>
		<g>
			<g>
				<g>
					<g>
						<g>
							<path class="st1" d="M383.49,147.48c-0.05,0.02-0.31-0.65-0.72-1.86c-0.42-1.21-0.96-2.98-1.6-5.18
								c-1.29-4.39-2.85-10.52-4.55-17.28c-1.7-6.76-3.35-12.85-4.7-17.21c-0.67-2.18-1.23-3.94-1.63-5.15
								c-0.39-1.21-0.59-1.9-0.53-1.92c0.05-0.02,0.35,0.62,0.84,1.81c0.5,1.18,1.14,2.92,1.88,5.08c1.5,4.33,3.25,10.42,4.95,17.18
								c1.66,6.68,3.17,12.71,4.32,17.33c0.53,2.08,0.98,3.83,1.34,5.24C383.4,146.77,383.55,147.46,383.49,147.48z"/>
						</g>
					</g>
				</g>
			</g>
		</g>
		<g>
			<g>
				<g>
					<g>
						<g>
							<path class="st1" d="M439.82,128.29c0.01,0.06-0.8,0.27-2.27,0.61c-1.47,0.35-3.59,0.84-6.2,1.53
								c-5.22,1.34-12.37,3.44-20.15,6.11c-7.78,2.68-14.72,5.4-19.68,7.52c-2.49,1.04-4.48,1.94-5.86,2.55
								c-1.38,0.62-2.15,0.93-2.18,0.88c-0.03-0.05,0.7-0.47,2.04-1.18c1.34-0.7,3.3-1.68,5.76-2.8c4.91-2.26,11.84-5.08,19.65-7.77
								c7.81-2.67,15.01-4.69,20.28-5.88c2.63-0.62,4.78-1.02,6.27-1.27C438.98,128.34,439.81,128.23,439.82,128.29z"/>
						</g>
					</g>
				</g>
			</g>
		</g>
		<g>
			<g>
				<g>
					<g>
						<g>
							<path class="st1" d="M367.57,215.46c-0.02,0.02-0.2-0.21-0.5-0.65c-0.35-0.53-0.78-1.17-1.29-1.95
								c-1.12-1.7-2.66-4.2-4.54-7.32c-3.75-6.23-8.66-15-13.95-24.74c-5.29-9.75-10.12-18.55-13.73-24.85
								c-1.77-3.06-3.22-5.58-4.31-7.45c-0.46-0.81-0.85-1.48-1.16-2.03c-0.26-0.47-0.38-0.72-0.36-0.74
								c0.02-0.01,0.2,0.21,0.5,0.65c0.35,0.53,0.78,1.17,1.29,1.95c1.11,1.7,2.66,4.2,4.54,7.32c3.75,6.23,8.66,15,13.96,24.75
								c5.29,9.75,10.11,18.55,13.73,24.85c1.77,3.06,3.22,5.58,4.31,7.45c0.46,0.81,0.85,1.48,1.16,2.03
								C367.47,215.2,367.6,215.45,367.57,215.46z"/>
						</g>
					</g>
				</g>
			</g>
		</g>
		<g>
			<g>
				<g>
					<g>
						<g>
							<path class="st1" d="M440.92,179.55c0.01,0.03-0.24,0.17-0.72,0.43c-0.57,0.29-1.28,0.64-2.13,1.07
								c-1.97,0.97-4.62,2.27-7.85,3.86c-6.63,3.26-15.74,7.87-25.79,12.98c-10.06,5.11-19.21,9.64-25.91,12.77
								c-3.35,1.56-6.07,2.8-7.97,3.62c-0.88,0.37-1.6,0.68-2.19,0.93c-0.51,0.2-0.78,0.3-0.79,0.27c-0.01-0.03,0.24-0.17,0.72-0.43
								c0.57-0.29,1.27-0.64,2.13-1.07c1.97-0.97,4.62-2.27,7.85-3.86c6.63-3.26,15.74-7.87,25.79-12.98
								c10.05-5.11,19.21-9.64,25.91-12.76c3.35-1.56,6.07-2.8,7.97-3.62c0.88-0.37,1.6-0.68,2.19-0.93
								C440.64,179.61,440.91,179.52,440.92,179.55z"/>
						</g>
					</g>
				</g>
			</g>
		</g>
	</g>
	<g>
		<path class="st2" d="M568.22,111.65c0-16.32-17.14-26.65-34.62-18.47c-3.95,1.85-7.21,4.97-9.2,8.81
			c-4.4,8.52-2.46,18.24,1.53,26.32l13.6,34.47c1.96,4.97,9,4.94,10.92-0.05l13.34-34.65C568.41,117.53,568.22,111.65,568.22,111.65
			z M551.8,125.85c-11.75,6.83-23.66-5.8-17.22-18.26c0.86-1.66,2.17-3.05,3.73-3.96c11.75-6.83,23.66,5.8,17.22,18.26
			C554.68,123.55,553.36,124.94,551.8,125.85z"/>
	</g>
</g>
<g id="Background_Simple" class="st3">
	<path class="st4" d="M636.39,230.32c11.52-43.01,0.94-91.33-27.5-125.59s-73.97-53.57-118.37-50.18
		c-44.4,3.39-86.48,29.38-109.38,67.56c-7.74,12.9-13.62,27.33-24.65,37.56c-14.91,13.83-36.67,17.49-57.01,17.02
		c-20.34-0.47-40.59-4.43-60.89-3.14c-35.99,2.28-70.8,22.39-89.26,53.38c-18.46,30.98-19.28,72.15-0.59,102.99
		c15.35,25.32,41.99,42.27,70.19,51.26c28.21,8.99,58.16,10.8,87.76,11.56c65.6,1.69,132.72-1.68,193.86-25.51
		c61.14-23.83,116.02-71.01,135.29-133.74"/>
	<path class="st4" d="M112.21,51.89c8.99-17.03,26.99-28.67,47.68-26.54c8.81-0.52,24.76,5.34,34.98,16.82
		c10.22,11.48,14.4,28.41,10.41,43.25c-5,18.6-15.85,31.87-34.48,36.72c-18.63,4.86-39.87-1.52-52.34-16.2
		S103.22,68.92,112.21,51.89z"/>
</g>
<g id="Floor">
	<g>
		<g>
			<path class="st5" d="M709.96,444.08c0,0.14-149.98,0.26-334.95,0.26c-185.03,0-334.98-0.12-334.98-0.26s149.95-0.26,334.98-0.26
				C559.98,443.82,709.96,443.94,709.96,444.08z"/>
		</g>
	</g>
</g>
<g id="Device">
	<g>
		<g>
			<g>
				<g>
					<g>
						<g>
							<g>
								<path class="st6" d="M324.16,444.08l-132.92-0.61c-15.99-0.07-28.89-13.09-28.82-29.08l1.41-333.23
									c0.07-16,13.09-28.91,29.09-28.83l132.92,0.61c15.99,0.07,28.89,13.09,28.82,29.08l-1.41,333.24
									C353.18,431.25,340.16,444.16,324.16,444.08z"/>
							</g>
						</g>
						<g>
							<g>
								<path class="st7" d="M325.65,64.44l-25.77-0.12c-3.46-0.02-6.27,2.9-6.28,6.51l-0.02,4.67c-0.01,3.61-2.83,6.53-6.28,6.51
									l-50.23-0.23c-3.46-0.02-6.25-2.96-6.23-6.57l0.02-4.67c0.01-3.61-2.77-6.56-6.23-6.57l-9.06-0.04l-22.56-0.1
									c-11.2-0.05-20.32,8.99-20.37,20.19l-1.38,325.26c-0.05,11.2,8.99,20.31,20.18,20.36l132.66,0.61
									c11.2,0.05,20.32-8.99,20.37-20.19l1.38-325.26C345.88,73.61,336.85,64.49,325.65,64.44z"/>
							</g>
						</g>
					</g>
				</g>
			</g>
		</g>
		<g>
			<polygon class="st0" points="172.46,123.05 194.2,123.05 213.6,142.46 193.43,162.63 172.69,141.88 			"/>
		</g>
		<g>
			<polygon class="st0" points="218.03,133.95 207.14,123.05 231.65,123.05 			"/>
		</g>
		<g>
			<path class="st0" d="M227.56,142.84l19.09-19.09h66.7c0,0,10.21,45.6-29.96,74.87L227.56,142.84z"/>
		</g>
		<g>
			<polygon class="st0" points="219.39,148.92 198.97,169.35 255.48,225.86 275.9,204.75 			"/>
		</g>
		<g>
			<polygon class="st0" points="172.21,180.92 185.01,167.65 172.46,155.1 			"/>
		</g>
		<g>
			<polygon class="st0" points="192.67,175.48 173.01,195.14 173.01,222.46 213.6,263.99 247.99,231.99 			"/>
		</g>
		<g>
			<path class="st0" d="M290.98,204.36c0,0,42.11-30.88,28.5-80.6h26.19l-0.32,140.36L290.98,204.36z"/>
		</g>
		<g>
			<polygon class="st0" points="283.09,212.46 262.72,233.72 325.16,296.17 344.26,275.93 			"/>
		</g>
		<g>
			<polygon class="st0" points="254.21,239.54 222.2,271.33 286.22,334.89 318.17,304 			"/>
		</g>
		<g>
			<polygon class="st0" points="237.43,398.77 286.37,348.05 332.92,395.5 			"/>
		</g>
		<g>
			<path class="st0" d="M294,341.5l50.96-50.48c0,2.24-0.44,104.71-0.44,104.71L294,341.5z"/>
		</g>
		<g>
			<polygon class="st0" points="250.37,313.14 279.28,342.05 222.2,400.95 195.83,369.32 			"/>
		</g>
		<g>
			<path class="st0" d="M172.26,373.42c2.73-0.27,72.64-65.74,72.64-65.74l-72.64-75.27V373.42z"/>
		</g>
		<g>
			<polyline class="st0" points="171.25,388.34 188.08,373.42 211.39,400.95 171.25,400.95 171.25,390.42 			"/>
		</g>
		<g>
			<g>
				<g>
					<path class="st5" d="M193.03,103.23c-0.1,0.1-2.33-1.84-4.99-4.34l0,0c0-0.76,0-0.21,0-0.38l0,0l0.01-0.01l0.02-0.01l0.03-0.03
						l0.06-0.06l0.12-0.12l0.25-0.23c0.16-0.15,0.32-0.3,0.48-0.45c0.31-0.29,0.62-0.57,0.92-0.84c0.55-0.49,1.07-0.95,1.57-1.4
						c0.9-0.79,1.49-1.24,1.54-1.19c0.05,0.05-0.45,0.61-1.29,1.46c-0.48,0.47-0.97,0.96-1.49,1.48c-0.29,0.28-0.59,0.57-0.89,0.86
						c-0.16,0.15-0.32,0.3-0.48,0.45l-0.24,0.23l-0.12,0.12l-0.06,0.06l-0.03,0.03l-0.02,0.01l-0.01,0.01l0,0c0-0.17,0,0.38,0-0.38
						l0,0C191.05,101.01,193.13,103.13,193.03,103.23z"/>
				</g>
			</g>
			<g>
				<g>
					<path class="st5" d="M331.25,95.6c0,0.6-0.49,1.08-1.08,1.08s-1.08-0.49-1.08-1.08c0-0.6,0.49-1.08,1.08-1.08
						S331.25,95.01,331.25,95.6z"/>
				</g>
				<g>
					<path class="st5" d="M330.94,98.57c0.42,0.42,0.42,1.11,0,1.53c-0.42,0.42-1.11,0.42-1.53,0c-0.42-0.42-0.42-1.11,0-1.53
						C329.82,98.15,330.51,98.15,330.94,98.57z"/>
				</g>
				<g>
					<path class="st5" d="M331.25,103.07c0,0.6-0.49,1.08-1.08,1.08s-1.08-0.49-1.08-1.08c0-0.6,0.49-1.08,1.08-1.08
						S331.25,102.47,331.25,103.07z"/>
				</g>
			</g>
		</g>
		<g>
			<rect x="237.61" y="100.03" class="st5" width="46.78" height="3.9"/>
		</g>
		<g>
			<path class="st8" d="M279.3,170.04c0-18.22-19.15-29.77-38.67-20.63c-4.41,2.06-8.06,5.55-10.27,9.85
				c-4.91,9.51-2.74,20.38,1.71,29.4l15.19,38.51c2.19,5.55,10.06,5.52,12.2-0.05l14.9-38.71
				C279.52,176.61,279.3,170.04,279.3,170.04z M260.96,185.9c-13.12,7.63-26.42-6.47-19.23-20.39c0.96-1.85,2.42-3.41,4.17-4.42
				c13.12-7.63,26.43,6.47,19.23,20.39C264.17,183.33,262.71,184.89,260.96,185.9z"/>
		</g>
	</g>
</g>
<g id="Car">
	<g>
		<g>
			<g>
				<g>
					<g>
						<rect x="122.25" y="309.12" class="st8" width="554.82" height="81.41"/>
					</g>
				</g>
				<g class="st9">
					<g>
						<rect x="122.25" y="309.12" width="554.82" height="81.41"/>
					</g>
				</g>
			</g>
			<g>
				<g>
					<g>
						<g>
							<g>
								<g>
									<g>
										
											<ellipse transform="matrix(0.9977 -0.0671 0.0671 0.9977 -25.7348 14.0905)" class="st5" cx="196.8" cy="389.98" rx="53.5" ry="53.5"/>
									</g>
								</g>
							</g>
						</g>
					</g>
				</g>
				<g>
					<g>
						<g>
							<g>
								<g>
									<g>
										<path class="st5" d="M143.32,389.07c0,0.05-0.01,0.09-0.01,0.14c-0.43,29.54,23.18,53.84,52.72,54.26
											c29.54,0.43,53.84-23.18,54.27-52.72c0-0.05-0.01-0.09-0.01-0.14L143.32,389.07z"/>
									</g>
								</g>
							</g>
						</g>
					</g>
				</g>
				<g>
					<g>
						<g>
							<g>
								<g>
									<g>
										<path class="st7" d="M159.25,389.44c-0.3,20.74,16.27,37.8,37.01,38.1c20.74,0.3,37.8-16.27,38.1-37.01
											c0.3-20.74-16.27-37.8-37.01-38.1C176.6,352.13,159.55,368.7,159.25,389.44z"/>
									</g>
								</g>
							</g>
						</g>
					</g>
				</g>
				<g>
					<g>
						<g>
							<g>
								<g>
									<g>
										<path class="st1" d="M197.34,352.43c-20.74-0.3-37.8,16.27-38.1,37.01l75.11,1.08
											C234.66,369.78,218.09,352.73,197.34,352.43z"/>
									</g>
								</g>
							</g>
						</g>
					</g>
				</g>
				<g>
					<g>
						<g>
							<g>
								<g>
									<g>
										<path class="st5" d="M173.93,389.65c-0.18,12.63,9.91,23.02,22.55,23.21c12.63,0.18,23.03-9.91,23.21-22.55
											c0.18-12.63-9.91-23.03-22.55-23.21C184.5,366.92,174.11,377.02,173.93,389.65z"/>
									</g>
								</g>
							</g>
						</g>
					</g>
				</g>
			</g>
			<g>
				<g>
					<g>
						<g>
							<g>
								<g>
									<g>
										
											<ellipse transform="matrix(0.9983 -0.0578 0.0578 0.9983 -21.5384 35.6914)" class="st5" cx="605.9" cy="389.98" rx="53.5" ry="53.5"/>
									</g>
								</g>
							</g>
						</g>
					</g>
				</g>
				<g>
					<g>
						<g>
							<g>
								<g>
									<g>
										<path class="st5" d="M552.42,389.07c0,0.05-0.01,0.09-0.01,0.14c-0.43,29.54,23.18,53.84,52.72,54.26
											c29.54,0.43,53.84-23.18,54.27-52.72c0-0.05-0.01-0.09-0.01-0.14L552.42,389.07z"/>
									</g>
								</g>
							</g>
						</g>
					</g>
				</g>
				<g>
					<g>
						<g>
							<g>
								<g>
									<g>
										<path class="st7" d="M568.35,389.44c-0.3,20.74,16.27,37.8,37.01,38.1c20.74,0.3,37.8-16.27,38.1-37.01
											c0.3-20.74-16.27-37.8-37.01-38.1C585.7,352.13,568.65,368.7,568.35,389.44z"/>
									</g>
								</g>
							</g>
						</g>
					</g>
				</g>
				<g>
					<g>
						<g>
							<g>
								<g>
									<g>
										<path class="st1" d="M606.44,352.43c-20.74-0.3-37.8,16.27-38.1,37.01l75.11,1.08
											C643.76,369.78,627.19,352.73,606.44,352.43z"/>
									</g>
								</g>
							</g>
						</g>
					</g>
				</g>
				<g>
					<g>
						<g>
							<g>
								<g>
									<g>
										<path class="st5" d="M583.03,389.65c-0.18,12.63,9.91,23.02,22.55,23.21c12.63,0.18,23.03-9.91,23.21-22.55
											c0.18-12.63-9.91-23.03-22.55-23.21C593.6,366.92,583.21,377.02,583.03,389.65z"/>
									</g>
								</g>
							</g>
						</g>
					</g>
				</g>
			</g>
			<g>
				<g>
					<path class="st8" d="M266.93,263.32c0,0-78.78,5.81-107.98,12.36c-20.58,4.62-60.26,12.58-59.78,37.55l3.15,17.89
						c0,0-14.72,6.72-14.72,23.88c0,17.15-3.59,43.77,30.76,44.83c5.66,0.18,16.42,0,16.42,0s-6.6-73.17,60.63-75.32
						c68.39-2.18,63.85,74.65,63.85,74.65h285.43c0,0-11.71-74.85,61.91-74.95C680.2,324.1,669,399.65,669,399.65
						s27.08,2.34,39.68-20.42c12.6-22.76,9.32-38.96,9.32-38.96l-0.42-14.39c-0.14-4.9-4.06-8.85-8.95-9.04l0,0
						c0,0,4.92-36.23-2.63-42.5c-7.55-6.27-48.92-44.09-48.92-44.09l1.97-1.24c3.3-2.07,2.73-7.05-0.96-8.32
						c-15.71-5.4-46.77-16.09-54.07-18.64c-1.1-0.38-2.23-0.62-3.39-0.71c-4.36-0.33-16.69-1.12-39.34-1.36
						c-27.59-0.29-137.13,0-137.13,0s-37.7,3.1-58.7,12.35C343.38,222.05,266.93,263.32,266.93,263.32z"/>
				</g>
			</g>
			<g class="st10">
				<g>
					<g>
						<path d="M107.57,353.01c-2.86-0.58-7.24-0.64-9.42,1.3c-1.62,1.44-2.05,3.76-2.29,5.91c-0.34,2.95-0.51,5.98,0.2,8.87
							c0.7,2.89,2.39,5.65,5,7.07c2.61,1.42,6.2,1.19,8.23-0.98c1.86-1.98,2.07-4.96,2.02-7.68c-0.07-3.86,0.24-7.13-0.47-10.92
							c-0.14-0.72-0.52-1.64-0.98-2.2C109.09,353.47,108.51,353.07,107.57,353.01"/>
					</g>
				</g>
			</g>
			<g>
				<g>
					<path class="st7" d="M102.32,331.12c8.36,0.02,16.47-0.46,24.82-1.02c0.9-0.06,1.88-0.16,2.54-0.77
						c0.8-0.74,0.86-1.96,0.87-3.05c0.04-4.48-0.18-9.58-3.58-12.5c-2.08-1.78-4.93-2.34-7.65-2.6c-6.71-0.63-13.75-0.11-20.15,2.03
						L102.32,331.12z"/>
				</g>
			</g>
			<g>
				<g>
					<g>
						<path class="st11" d="M275.97,396.87c0,0-0.03-0.24-0.07-0.71c-0.03-0.49-0.08-1.19-0.14-2.1c-0.1-1.86-0.25-4.58-0.44-8.07
							c-0.2-3.5-0.43-7.79-0.93-12.75c-0.52-4.95-1.28-10.59-2.95-16.63c-1.68-6.03-4.25-12.45-8.05-18.76
							c-3.82-6.26-8.84-12.52-15.56-17.36c-13.5-9.6-31.73-15.03-50.79-15.26c-19.12-0.23-37.28,5.81-50.43,15.88
							c-6.64,4.93-12.14,10.69-16.37,16.71c-4.27,6-7.39,12.17-9.58,18.03c-2.22,5.86-3.39,11.45-4.05,16.37
							c-0.72,4.93-0.61,9.24-0.49,12.74c0.27,3.49,0.58,6.2,0.98,8c0.16,0.9,0.29,1.59,0.37,2.07c0.08,0.47,0.11,0.71,0.11,0.71
							s-0.06-0.23-0.16-0.7c-0.1-0.48-0.24-1.17-0.43-2.06c-0.43-1.8-0.77-4.51-1.08-8.01c-0.15-3.5-0.29-7.83,0.4-12.78
							c0.64-4.95,1.78-10.56,3.99-16.46c2.19-5.89,5.3-12.11,9.58-18.15c4.24-6.06,9.76-11.87,16.44-16.84
							c13.22-10.15,31.5-16.25,50.73-16.02c19.17,0.24,37.48,5.7,51.07,15.39c6.78,4.9,11.82,11.22,15.65,17.52
							c3.81,6.35,6.38,12.82,8.04,18.88c1.66,6.08,2.39,11.74,2.88,16.7c0.48,4.97,0.68,9.26,0.84,12.77
							c0.15,3.5,0.26,6.21,0.34,8.08c0.04,0.91,0.07,1.61,0.09,2.1C275.98,396.62,275.97,396.87,275.97,396.87z"/>
					</g>
				</g>
			</g>
			<g>
				<g>
					<g>
						<path class="st5" d="M279,398.11c0,0-0.02-0.2-0.03-0.6c-0.01-0.41-0.04-1-0.06-1.77c-0.05-1.57-0.12-3.89-0.21-6.91
							c-0.17-6.06-0.43-14.94-0.75-26.22c-0.31-11.29-0.68-25-1.11-40.7c-0.11-3.93-0.22-7.98-0.33-12.15
							c-0.14-2.08,0.08-4.21,0.27-6.35c0.15-1.07,0.3-2.14,0.46-3.22c0.22-1.07,0.44-2.14,0.66-3.23c1.01-4.3,2.48-8.61,4.45-12.81
							c1.98-4.19,4.33-8.33,7.33-12.17l0.02-0.03l0.03-0.02c15.27-9.62,31.87-20.08,49.43-31.14c4.39-2.77,8.84-5.57,13.35-8.41
							c4.42-3,9.2-5.56,14.13-7.89c4.94-2.32,10.07-4.35,15.34-6.13c2.63-0.92,5.32-1.68,8.01-2.48c2.72-0.69,5.43-1.46,8.21-2.02
							c10.64-2.36,21.36-3.53,31.86-4.02c10.51-0.49,20.82-0.46,30.84,0.1l0.29,0.02l-0.06,0.29c-4.73,21.16-9.19,41.12-13.28,59.41
							l-0.01,0.04l-0.02,0.04c-2.49,4.1-4.48,8.41-5.96,12.76c-1.42,4.36-2.34,8.84-2.02,13.21c0.34,4.39,0.46,8.69,0.57,12.85
							c0.08,4.17,0.16,8.22,0.24,12.14c0.23,15.7,0.29,29.39,0.33,40.68c0.01,11.28,0.02,20.14,0.03,26.2
							c-0.01,3.02-0.02,5.33-0.03,6.91c-0.01,0.78-0.01,1.36-0.02,1.77c-0.01,0.4-0.02,0.6-0.02,0.6s-0.01-0.2-0.02-0.6
							c0-0.41-0.01-1-0.02-1.77c-0.01-1.57-0.02-3.89-0.04-6.91c-0.04-6.06-0.09-14.93-0.15-26.2c-0.08-11.28-0.18-24.98-0.44-40.67
							c-0.08-3.92-0.17-7.97-0.26-12.14c-0.12-4.17-0.25-8.45-0.59-12.83c-0.33-4.45,0.59-8.98,2.02-13.38
							c1.49-4.39,3.47-8.72,5.99-12.87l-0.03,0.07c4.07-18.3,8.52-38.26,13.23-59.42l0.23,0.31c-9.99-0.56-20.3-0.58-30.78-0.09
							c-10.48,0.49-21.16,1.66-31.77,4.01c-2.77,0.55-5.47,1.33-8.18,2.01c-2.68,0.8-5.36,1.55-7.98,2.47
							c-5.25,1.77-10.37,3.79-15.29,6.1c-4.91,2.32-9.67,4.87-14.06,7.85c-4.51,2.84-8.96,5.64-13.36,8.4
							c-17.58,11.05-34.19,21.5-49.47,31.1l0.05-0.05c-2.96,3.78-5.31,7.91-7.28,12.07c-1.97,4.17-3.43,8.45-4.44,12.72
							c-2.25,8.57-1.12,17.03-1.1,24.86c0.39,15.7,0.73,29.41,1.01,40.7c0.27,11.28,0.48,20.16,0.62,26.22
							c0.06,3.02,0.11,5.34,0.15,6.91c0.01,0.78,0.02,1.37,0.03,1.77C279.01,397.91,279,398.11,279,398.11z"/>
					</g>
				</g>
			</g>
			<g>
				<g>
					<g>
						<path class="st5" d="M460.55,211.64c0,0,0.16-0.02,0.47-0.03c0.33-0.01,0.78-0.03,1.38-0.05c1.23-0.03,3.01-0.07,5.31-0.13
							c4.64-0.09,11.35-0.22,19.69-0.39c16.73-0.29,40.03-0.68,66.38-1.13l0.12,0l0.08,0.1c2.98,3.65,6.11,7.49,9.3,11.39
							c9.42,11.55,18.4,22.56,26.56,32.57c1.02,1.25,2.03,2.49,3.02,3.71c0.98,1.24,1.82,2.59,2.48,3.98c1.31,2.8,1.98,5.8,1.99,8.7
							c0.03,2.9-0.57,5.7-1.61,8.18c-1.05,2.45-2.06,4.8-3.03,7.05c-3.87,8.95-7,16.2-9.18,21.24c-1.09,2.49-1.93,4.43-2.52,5.76
							c-0.29,0.64-0.51,1.14-0.67,1.49c-0.15,0.34-0.24,0.5-0.24,0.5s0.06-0.18,0.19-0.52c0.15-0.36,0.35-0.86,0.62-1.51
							c0.56-1.35,1.38-3.3,2.43-5.8c2.14-5.05,5.22-12.32,9.03-21.3c1.72-4.52,4.75-9.28,4.54-15.08c-0.02-2.84-0.68-5.77-1.97-8.51
							c-0.66-1.36-1.47-2.67-2.44-3.89c-1-1.22-2.01-2.45-3.03-3.7c-8.17-10-17.16-21-26.59-32.54c-3.18-3.9-6.32-7.74-9.3-11.39
							l0.2,0.09c-26.35,0.38-49.65,0.72-66.39,0.96c-8.34,0.1-15.05,0.18-19.69,0.23c-2.29,0.02-4.08,0.03-5.31,0.04
							c-0.59,0-1.05,0-1.38,0C460.71,211.65,460.55,211.64,460.55,211.64z"/>
					</g>
				</g>
			</g>
			<g>
				<g>
					<g>
						<path class="st5" d="M427.04,299.92c0-0.03,0.28-0.03,0.8-0.12c0.51-0.09,1.27-0.29,2.1-0.84c0.82-0.54,1.7-1.46,2.14-2.78
							c0.23-0.66,0.3-1.39,0.27-2.2c-0.02-0.78-0.22-1.61-0.62-2.38c-0.8-1.53-2.54-2.81-4.61-2.8c-2.11,0.01-4.37,0.01-6.74,0.02
							c-4.76,0.01-9.97,0.01-15.45,0.02c-1.31,0-2.59,0.51-3.52,1.37c-0.94,0.86-1.54,2.05-1.67,3.27
							c-0.13,1.26,0.04,2.49,0.64,3.53c0.58,1.04,1.52,1.83,2.56,2.27c1.05,0.47,2.19,0.4,3.33,0.41c1.12,0,2.22,0.01,3.27,0.01
							c2.11,0.01,4.07,0.02,5.88,0.03c3.55,0.03,6.45,0.06,8.51,0.08c0.97,0.02,1.74,0.04,2.31,0.05
							C426.76,299.88,427.04,299.9,427.04,299.92c0,0.02-0.28,0.04-0.81,0.05c-0.58,0.01-1.35,0.03-2.31,0.05
							c-2.06,0.02-4.96,0.05-8.51,0.08c-1.8,0.01-3.77,0.02-5.88,0.03c-1.06,0-2.15,0.01-3.27,0.01c-0.57-0.01-1.12,0.02-1.73-0.01
							c-0.6-0.04-1.21-0.17-1.78-0.41c-1.14-0.48-2.17-1.33-2.81-2.47c-0.66-1.13-0.85-2.52-0.71-3.83c0.14-1.35,0.8-2.66,1.83-3.6
							c1.03-0.95,2.43-1.51,3.87-1.51c5.48,0.01,10.7,0.01,15.45,0.02c2.37,0.01,4.63,0.02,6.75,0.03c2.23,0.02,4.1,1.42,4.92,3.07
							c0.42,0.83,0.62,1.71,0.63,2.54c0.02,0.81-0.07,1.62-0.33,2.3c-0.49,1.39-1.44,2.33-2.3,2.86c-0.88,0.54-1.67,0.71-2.2,0.77
							C427.32,299.96,427.04,299.92,427.04,299.92z"/>
					</g>
				</g>
			</g>
			<g>
				<g>
					<g>
						<path class="st5" d="M574.97,299.92c0-0.03,0.28-0.03,0.8-0.12c0.51-0.09,1.27-0.29,2.1-0.84c0.82-0.54,1.7-1.46,2.14-2.78
							c0.23-0.66,0.31-1.39,0.27-2.2c-0.02-0.78-0.22-1.61-0.62-2.38c-0.8-1.53-2.54-2.81-4.61-2.8c-2.11,0.01-4.37,0.01-6.74,0.02
							c-4.76,0.01-9.97,0.01-15.45,0.02c-1.31,0-2.59,0.51-3.52,1.37c-0.94,0.86-1.54,2.05-1.67,3.27
							c-0.13,1.26,0.04,2.49,0.64,3.53c0.58,1.04,1.52,1.83,2.56,2.27c1.05,0.47,2.19,0.4,3.33,0.41c1.12,0,2.22,0.01,3.27,0.01
							c2.11,0.01,4.07,0.02,5.88,0.03c3.55,0.03,6.45,0.06,8.51,0.08c0.97,0.02,1.74,0.04,2.31,0.05
							C574.69,299.88,574.97,299.9,574.97,299.92c0,0.02-0.28,0.04-0.81,0.05c-0.58,0.01-1.35,0.03-2.31,0.05
							c-2.06,0.02-4.96,0.05-8.51,0.08c-1.8,0.01-3.77,0.02-5.88,0.03c-1.06,0-2.15,0.01-3.27,0.01c-0.57-0.01-1.12,0.02-1.73-0.01
							c-0.6-0.04-1.21-0.17-1.78-0.41c-1.14-0.48-2.17-1.33-2.81-2.47c-0.66-1.13-0.85-2.52-0.71-3.83c0.14-1.35,0.8-2.66,1.83-3.6
							c1.03-0.95,2.43-1.51,3.87-1.51c5.48,0.01,10.7,0.01,15.45,0.02c2.37,0.01,4.63,0.02,6.75,0.03c2.23,0.02,4.1,1.42,4.92,3.07
							c0.42,0.83,0.62,1.71,0.63,2.54c0.02,0.81-0.07,1.62-0.33,2.3c-0.49,1.39-1.44,2.33-2.3,2.86c-0.88,0.54-1.67,0.71-2.2,0.77
							C575.25,299.96,574.97,299.92,574.97,299.92z"/>
					</g>
				</g>
			</g>
			<g>
				<g>
					<path class="st7" d="M704.69,275.78h-29.6c-4.06,0-7.78,2.25-9.67,5.84v0c-1.55,2.95-1.67,6.44-0.33,9.49l11.61,26.37
						l29.64-0.29C706.34,317.18,712.65,283.75,704.69,275.78z"/>
				</g>
			</g>
			<g>
				<g>
					<path class="st5" d="M293.6,272.05l152.73-2.81l99.4-1.82l32.78-18.92c2.65-1.53,3.36-5.05,1.51-7.49l-20.4-26.81
						c-2.13-2.8-5.43-4.45-8.94-4.48l-111.18-0.9c0,0-41.87-2.43-74.85,16.04C329.93,244.28,293.6,272.05,293.6,272.05z"/>
				</g>
			</g>
			<g>
				<g>
					<path class="st6" d="M363.59,211.58c0,0,7.66,3.49,2.67,6.73c-4.98,3.23-82.36,52.02-82.36,52.02l-17.79-8.05
						C297.63,244.72,329.45,227.67,363.59,211.58z"/>
				</g>
			</g>
			<g>
				<g>
					<g>
						<path class="st5" d="M286.41,271.54c0,0-0.16,0.05-0.48,0.12c-0.34,0.07-0.81,0.18-1.41,0.31c-1.26,0.26-3.09,0.64-5.43,1.12
							c-4.72,0.94-11.56,2.26-20.04,3.71c-16.96,2.92-40.52,6.32-66.69,8.59c-6.54,0.57-12.94,1.04-19.12,1.44
							c-6.18,0.41-12.14,0.78-17.8,1.3c-11.32,0.99-21.47,2.64-29.71,5.09c-8.26,2.37-14.58,5.41-18.73,7.81
							c-2.13,1.12-3.64,2.22-4.72,2.88c-0.52,0.33-0.92,0.59-1.22,0.77c-0.28,0.17-0.42,0.25-0.42,0.25s0.13-0.11,0.39-0.29
							c0.29-0.2,0.68-0.47,1.19-0.82c1.06-0.69,2.56-1.82,4.68-2.97c4.13-2.46,10.45-5.57,18.73-7.99
							c8.26-2.51,18.43-4.2,29.77-5.21c5.67-0.53,11.63-0.92,17.81-1.33c6.18-0.41,12.57-0.88,19.11-1.45
							c26.16-2.26,49.71-5.6,66.68-8.43c8.49-1.41,15.33-2.67,20.07-3.55c2.35-0.44,4.18-0.79,5.45-1.03
							c0.61-0.11,1.08-0.19,1.42-0.26C286.24,271.56,286.41,271.54,286.41,271.54z"/>
					</g>
				</g>
			</g>
			<g>
				<g>
					<g>
						<path class="st5" d="M716.52,339.93c0,0.14-10.18,0.26-22.73,0.26c-12.56,0-22.74-0.12-22.74-0.26s10.18-0.26,22.74-0.26
							C706.34,339.67,716.52,339.79,716.52,339.93z"/>
					</g>
				</g>
			</g>
			<g>
				<g>
					<g>
						<path class="st5" d="M530.29,365.91c0,0.14-57.46,0.26-128.33,0.26c-70.89,0-128.34-0.12-128.34-0.26
							c0-0.14,57.45-0.26,128.34-0.26C472.83,365.65,530.29,365.77,530.29,365.91z"/>
					</g>
				</g>
			</g>
			<g>
				<g>
					<g>
						<path class="st5" d="M127.95,340.79c0,0.14-8.13,0.26-18.15,0.26c-10.02,0-18.15-0.12-18.15-0.26s8.12-0.26,18.15-0.26
							C119.82,340.53,127.95,340.65,127.95,340.79z"/>
					</g>
				</g>
			</g>
			<g>
				<g>
					<path class="st6" d="M656.27,229.21c0,0-6.82,7.64-4.14,13.24c2.68,5.6,30.38,25.21,30.38,25.21l20.11,3.77L656.27,229.21z"/>
				</g>
			</g>
			<g>
				<g>
					<polygon class="st6" points="465.07,215.54 460.55,264.38 541.47,262.07 574.08,243.11 552.97,215.54 					"/>
				</g>
			</g>
			<g>
				<g>
					<path class="st6" d="M312.76,266.88c0,0,48.82-35.26,68.08-42.26c18.59-6.76,28.28-8.46,45.74-8.95
						c16.69-0.47,26.86-0.01,26.86-0.01l-12.9,49.65L312.76,266.88z"/>
				</g>
			</g>
			<g>
				<g>
					<g>
						<path class="st8" d="M305.62,267.04L305.62,267.04c0-3.09,1.67-5.94,4.36-7.46l11.21-6.3c3.2-1.8,6.8-2.74,10.47-2.74l0,0
							c2.28,0,4.53,0.36,6.66,1.06c4.79,1.57,7.98,6.12,8.18,11.16l0,0c0.27,7-5.34,12.83-12.35,12.83h-19.98
							C309.45,275.59,305.62,271.76,305.62,267.04z"/>
					</g>
				</g>
				<g>
					<g>
						<g>
							<path class="st5" d="M305.62,267.04c0.03,0,0.03,0.38,0.13,1.08c0.09,0.7,0.35,1.74,0.98,2.93c0.66,1.17,1.76,2.47,3.44,3.38
								c0.84,0.44,1.82,0.77,2.88,0.91c1.06,0.13,2.23,0.05,3.45,0.06c4.88-0.02,10.68-0.03,17.11-0.06
								c1.6,0.01,3.21-0.19,4.76-0.78c1.55-0.58,3-1.49,4.23-2.69c1.22-1.2,2.23-2.67,2.85-4.33c0.63-1.66,0.88-3.48,0.75-5.29
								c-0.28-3.64-2.22-7-5.05-8.95c-1.4-1-3.01-1.57-4.64-1.95c-1.62-0.39-3.25-0.57-4.84-0.57c-3.19,0-6.2,0.71-8.78,1.88
								c-1.29,0.58-2.47,1.31-3.64,1.94c-1.16,0.65-2.28,1.27-3.34,1.86c-2.13,1.18-4.05,2.24-5.75,3.19
								c-1.69,0.91-2.79,2.22-3.43,3.39c-0.65,1.18-0.89,2.23-0.99,2.93C305.64,266.66,305.65,267.04,305.62,267.04
								c0,0-0.05-0.38,0.02-1.1c0.07-0.71,0.28-1.78,0.92-3.01c0.63-1.21,1.75-2.59,3.47-3.55c1.69-0.96,3.6-2.05,5.71-3.25
								c1.06-0.6,2.17-1.23,3.32-1.89c1.16-0.64,2.34-1.38,3.66-1.98c2.62-1.21,5.7-1.96,8.96-1.97c1.63,0,3.3,0.18,4.96,0.57
								c1.65,0.38,3.35,0.97,4.81,2.02c2.95,2.03,4.99,5.54,5.27,9.33c0.14,1.89-0.12,3.79-0.78,5.52c-0.65,1.73-1.7,3.27-2.98,4.51
								c-1.28,1.25-2.8,2.2-4.41,2.79c-1.61,0.61-3.32,0.81-4.94,0.79c-6.43-0.02-12.22-0.04-17.11-0.06
								c-1.22-0.02-2.37,0.04-3.49-0.1c-1.11-0.15-2.12-0.51-2.98-0.98c-1.73-0.97-2.83-2.34-3.48-3.54
								c-0.62-1.23-0.85-2.3-0.91-3.01C305.58,267.42,305.62,267.04,305.62,267.04z"/>
						</g>
					</g>
				</g>
			</g>
			<g>
				<g>
					<g>
						<path class="st11" d="M681.74,397.32c0,0,0-0.24,0.03-0.69c0.03-0.47,0.08-1.15,0.14-2.03c0.05-0.89,0.16-1.99,0.22-3.3
							c0.04-1.31,0.1-2.82,0.15-4.51c0.02-1.7-0.01-3.59-0.03-5.65c-0.13-2.06-0.14-4.31-0.42-6.7c-0.43-4.8-1.23-10.25-2.89-16.09
							c-0.86-2.9-1.84-5.93-3.19-8.95c-1.28-3.05-2.91-6.09-4.83-9.09c-3.81-6.02-9.2-11.56-15.63-16.32
							c-6.45-4.74-14.08-8.55-22.43-11.05c-8.34-2.56-17.42-3.49-26.66-3.55c-9.25-0.02-18.29,1.23-26.6,3.87
							c-4.15,1.31-8.12,2.96-11.84,4.89c-3.71,1.94-7.12,4.26-10.28,6.72c-6.29,4.96-11.6,10.52-15.84,16.24
							c-2.09,2.88-3.78,5.88-5.26,8.84c-1.4,3-2.67,5.91-3.64,8.79c-4.05,11.46-5.32,21.31-5.77,28.06
							c-0.16,3.39-0.14,6.03-0.06,7.81c0.05,0.88,0.09,1.56,0.12,2.03c0.02,0.46,0.02,0.69,0.02,0.69s-0.03-0.23-0.08-0.69
							c-0.04-0.47-0.1-1.15-0.17-2.03c-0.12-1.79-0.17-4.43-0.04-7.83c0.39-6.77,1.61-16.66,5.63-28.17
							c0.97-2.89,2.23-5.82,3.63-8.84c1.48-2.98,3.18-6,5.28-8.92c4.25-5.77,9.57-11.37,15.89-16.36c3.18-2.48,6.6-4.82,10.34-6.78
							c3.75-1.94,7.74-3.61,11.92-4.93c8.36-2.66,17.47-3.93,26.76-3.9c9.28,0.06,18.4,1,26.8,3.58c8.4,2.53,16.07,6.37,22.56,11.16
							c3.25,2.39,6.2,5,8.84,7.76c2.64,2.75,4.97,5.67,6.87,8.71c1.93,3.02,3.56,6.09,4.83,9.16c1.35,3.04,2.31,6.09,3.17,9.01
							c1.65,5.87,2.42,11.35,2.83,16.16c0.27,2.4,0.26,4.66,0.38,6.72c0,2.07,0.01,3.96-0.02,5.66c-0.08,1.7-0.14,3.2-0.2,4.52
							c-0.08,1.31-0.2,2.41-0.27,3.3c-0.08,0.88-0.14,1.55-0.19,2.03C681.77,397.09,681.74,397.32,681.74,397.32z"/>
					</g>
				</g>
			</g>
			<g>
				<g>
					<g>
						<path class="st12" d="M222.37,308.65"/>
					</g>
				</g>
			</g>
			<g>
				<g>
					<g>
						<path class="st11" d="M438.4,272.05c0,0.01-0.08,0.02-0.23,0.03c-0.18,0.01-0.41,0.02-0.68,0.03
							c-0.64,0.01-1.51,0.03-2.61,0.06c-2.31,0.04-5.58,0.1-9.59,0.17c-8.1,0.15-19.28,0.45-31.64,0.79
							c-12.36,0.34-23.55,0.58-31.65,0.63c-4.05,0.03-7.33,0.03-9.6,0.01c-1.1-0.02-1.97-0.03-2.61-0.04
							c-0.27-0.01-0.49-0.02-0.68-0.02c-0.15-0.01-0.23-0.02-0.23-0.03c0-0.01,0.08-0.02,0.23-0.03c0.18-0.01,0.41-0.02,0.68-0.03
							c0.64-0.01,1.51-0.03,2.61-0.06c2.31-0.04,5.58-0.1,9.59-0.17c8.1-0.15,19.29-0.45,31.65-0.79
							c12.36-0.34,23.55-0.58,31.65-0.63c4.05-0.03,7.33-0.03,9.6-0.01c1.1,0.02,1.97,0.03,2.61,0.04c0.27,0.01,0.49,0.02,0.68,0.02
							C438.32,272.03,438.4,272.04,438.4,272.05z"/>
					</g>
				</g>
			</g>
			<g>
				<g>
					<g>
						<path class="st11" d="M425.14,287.08c0,0.14-3.92,0.26-8.76,0.26c-4.84,0-8.76-0.12-8.76-0.26c0-0.14,3.92-0.26,8.76-0.26
							C421.22,286.82,425.14,286.94,425.14,287.08z"/>
					</g>
				</g>
			</g>
			<g>
				<g>
					<g>
						<path class="st11" d="M428.36,233.57c0.05,0.13-10.82,4.66-24.29,10.11c-13.47,5.45-24.43,9.76-24.49,9.63
							s10.82-4.66,24.29-10.11C417.34,237.75,428.3,233.44,428.36,233.57z"/>
					</g>
				</g>
			</g>
			<g>
				<g>
					<g>
						<path class="st11" d="M406.32,236.98c0.06,0.13-10.3,4.69-23.13,10.19c-12.83,5.5-23.28,9.84-23.33,9.71
							c-0.06-0.13,10.3-4.69,23.13-10.19C395.82,241.2,406.26,236.85,406.32,236.98z"/>
					</g>
				</g>
			</g>
			<g>
				<g>
					<g>
						<path class="st11" d="M546.08,231.68c0.05,0.13-10.82,4.66-24.29,10.11c-13.47,5.45-24.43,9.76-24.49,9.63
							c-0.05-0.13,10.82-4.66,24.29-10.11C535.06,235.86,546.03,231.54,546.08,231.68z"/>
					</g>
				</g>
			</g>
			<g>
				<g>
					<g>
						<path class="st11" d="M524.04,235.09c0.06,0.13-10.3,4.69-23.13,10.19c-12.83,5.5-23.28,9.84-23.33,9.71
							c-0.06-0.13,10.3-4.69,23.13-10.19C513.54,239.31,523.99,234.96,524.04,235.09z"/>
					</g>
				</g>
			</g>
			<g>
				<g>
					<g>
						<path class="st11" d="M548.21,272.04c0,0.14-21.63,0.39-48.31,0.55c-26.69,0.16-48.31,0.17-48.31,0.03
							c0-0.14,21.62-0.39,48.31-0.55C526.57,271.91,548.21,271.89,548.21,272.04z"/>
					</g>
				</g>
			</g>
			<g>
				<g>
					<g>
						<path class="st11" d="M572.16,286.25c0,0.14-6.06,0.32-13.55,0.39c-7.49,0.07-13.55,0.01-13.55-0.13
							c0-0.14,6.06-0.32,13.55-0.39C566.09,286.04,572.16,286.1,572.16,286.25z"/>
					</g>
				</g>
			</g>
			<g>
				<g>
					<g>
						<path class="st11" d="M158.01,278.85c0,0.02-0.2,0.06-0.59,0.11c-0.44,0.06-1,0.13-1.7,0.22c-0.74,0.08-1.64,0.2-2.68,0.37
							c-1.04,0.17-2.23,0.32-3.53,0.58c-2.61,0.45-5.69,1.14-9.08,2.04c-3.37,0.94-7.05,2.11-10.81,3.57
							c-3.76,1.49-7.25,3.12-10.36,4.73c-3.1,1.64-5.82,3.23-8.05,4.68c-1.13,0.69-2.11,1.39-2.98,1.98
							c-0.88,0.58-1.62,1.11-2.21,1.55c-0.57,0.4-1.03,0.73-1.39,0.99c-0.32,0.22-0.5,0.33-0.51,0.32c-0.01-0.01,0.14-0.15,0.44-0.4
							c0.35-0.28,0.79-0.63,1.34-1.07c0.58-0.47,1.3-1.02,2.17-1.63c0.86-0.61,1.83-1.33,2.95-2.05c2.21-1.49,4.93-3.12,8.02-4.79
							c3.11-1.64,6.62-3.3,10.4-4.79c3.79-1.47,7.48-2.64,10.88-3.55c3.41-0.88,6.51-1.53,9.14-1.94c1.31-0.24,2.51-0.37,3.55-0.5
							c1.05-0.15,1.95-0.23,2.69-0.28c0.7-0.05,1.26-0.09,1.71-0.13C157.8,278.84,158.01,278.84,158.01,278.85z"/>
					</g>
				</g>
			</g>
			<g>
				<g>
					<g>
						<path class="st11" d="M336.58,255.26c-0.04,0.03-0.3-0.39-0.96-0.93c-0.66-0.53-1.79-1.14-3.3-1.33
							c-1.52-0.2-3.35,0.06-5.33,0.58c-1.99,0.5-4.13,1.2-6.3,2.14c-4.35,1.87-7.89,4.36-10.24,6.37c-2.38,2-3.63,3.47-3.71,3.4
							c-0.03-0.02,0.27-0.4,0.84-1.06c0.58-0.65,1.45-1.57,2.62-2.61c2.31-2.1,5.87-4.67,10.28-6.57c2.2-0.95,4.37-1.65,6.39-2.13
							c2-0.5,3.91-0.73,5.5-0.48c1.59,0.25,2.74,0.94,3.39,1.55c0.33,0.3,0.54,0.58,0.67,0.77
							C336.54,255.14,336.6,255.25,336.58,255.26z"/>
					</g>
				</g>
			</g>
		</g>
		<g>
			<g>
				<g>
					<path class="st5" d="M658.54,228.85c0,0-1.48,0.45-4.26,0.43c-1.38-0.03-3.07-0.2-4.99-0.62c-1.92-0.42-4.06-1.08-6.36-1.96
						c-2.31-0.87-4.77-1.98-7.43-3.11c-1.34-0.54-2.72-1.1-4.15-1.68c-1.43-0.57-2.94-1.06-4.46-1.62c-6.14-2.11-13.04-4-20.38-5.55
						c-14.69-3.08-28.27-4.36-38.09-4.74c-2.46-0.13-4.68-0.13-6.63-0.19c-1.94,0-3.62,0-5.01,0c-1.35,0.03-2.4,0.05-3.17,0.07
						c-0.34,0-0.61,0-0.82,0.01c-0.19,0-0.28-0.01-0.28-0.02s0.09-0.02,0.28-0.04c0.21-0.01,0.49-0.03,0.82-0.06
						c0.76-0.04,1.82-0.1,3.17-0.17c1.39-0.02,3.07-0.05,5.02-0.09c1.96,0.03,4.19,0,6.65,0.11c9.84,0.29,23.45,1.51,38.18,4.6
						c7.36,1.55,14.28,3.47,20.43,5.61c1.53,0.56,3.04,1.06,4.47,1.64c1.43,0.59,2.82,1.16,4.16,1.71c2.66,1.16,5.1,2.28,7.39,3.16
						c2.28,0.9,4.4,1.58,6.29,2.02c1.9,0.45,3.57,0.63,4.93,0.7c1.37,0.04,2.44-0.03,3.15-0.12c0.33-0.04,0.6-0.07,0.82-0.1
						C658.44,228.85,658.54,228.84,658.54,228.85z"/>
				</g>
			</g>
		</g>
	</g>
</g>
<g id="Character">
	<g>
		<g>
			<g>
				<path class="st8" d="M177.41,230.23c-3.99-21.88-6.68-25.24-8.95-32.77c-2.23-7.44-5.85-12.42-10.32-14.14
					c-3.02-1.16-18.06-6.59-23.31-4.79c-5.83,2-10.92,4.91-14.53,7.3c-3.51,2.33-6.17,5.73-7.58,9.7l-8.05,22.57l14.08,14.05
					l7.06-15l7.66,17.96l-1.13,18.15l43.94,11.82C180.28,258.66,179.68,242.64,177.41,230.23z"/>
			</g>
			<g>
				<g class="st13">
					<g>
						<path d="M165.97,206.36c-1.94,11.39-2.25,12.96-4.19,24.35c-0.67,3.91-2.61,10.01-5.4,12.83c-2.06,2.09-4.08,4.11-6.95,4.79
							c-2.67,0.63-6.71,0.7-9.22-0.4c-2.51-1.11-4.64-5.97-3.61-8.51c3.72,0.8,4.88,2.04,8.09,0c2.8-1.78,6.78-5.72,8.3-8.67
							C159.41,218.35,161.18,217.91,165.97,206.36"/>
					</g>
				</g>
			</g>
			<g>
				<g>
					<path class="st5" d="M134.17,228.43c-0.06,0.04-0.79-1.13-1.94-3.03c-1.23-2.01-2.8-4.56-4.53-7.38
						c-1.77-2.8-3.38-5.32-4.64-7.31c-1.19-1.87-1.92-3.03-1.86-3.07c0.03-0.02,0.25,0.24,0.63,0.74c0.38,0.49,0.9,1.22,1.54,2.13
						c1.28,1.82,2.98,4.37,4.77,7.24c1.79,2.88,3.33,5.53,4.4,7.47c0.54,0.97,0.96,1.77,1.24,2.32
						C134.07,228.09,134.2,228.41,134.17,228.43z"/>
				</g>
			</g>
			<g>
				<g>
					<path class="st5" d="M164.83,248.86c0.01,0.03-0.36,0.17-1.03,0.39c-0.34,0.11-0.75,0.24-1.25,0.35
						c-0.49,0.11-1.05,0.26-1.68,0.35c-1.25,0.23-2.76,0.37-4.45,0.4c-1.68,0-3.54-0.13-5.45-0.47c-1.91-0.36-3.69-0.89-5.27-1.49
						c-1.56-0.62-2.93-1.29-4.02-1.95c-0.56-0.3-1.03-0.64-1.45-0.92c-0.42-0.27-0.77-0.54-1.04-0.76c-0.56-0.44-0.85-0.7-0.83-0.73
						c0.06-0.08,1.29,0.89,3.5,2.09c1.1,0.61,2.46,1.23,4.01,1.82c1.56,0.56,3.31,1.07,5.19,1.42c1.88,0.33,3.7,0.47,5.36,0.5
						c1.66,0,3.15-0.1,4.39-0.29C163.3,249.23,164.8,248.76,164.83,248.86z"/>
				</g>
			</g>
			<g>
				<g>
					<g>
						<path class="st14" d="M147.2,214.77c-0.08,0.39-4.8,9.79-4.8,9.79l-22.28-11.74l-2.27-9.6c-0.35-1.5-1.28-2.8-2.57-3.64
							c-1.37-0.89-3.05-1.17-4.64-0.79l-6.57,2.69c-0.55,0.22-0.97,0.69-1.08,1.27c-0.09,0.49,0.03,0.96,0.87,0.89
							c1.63-0.13,5.03-0.49,5.03-0.49l-1.55,5.47c-0.41,1.43-0.25,2.97,0.44,4.29l0.99,1.89l2.17,3.51l-0.04,0.03
							c0,0,21.66,22.25,33.82,23.69c7.31,0.87,15.59-19.62,15.59-19.62L147.2,214.77z"/>
					</g>
					<g>
						<g>
							<g>
								<g>
									<g>
										<g>
											<path class="st15" d="M108.69,203.53c-0.02-0.03,0.17-0.23,0.54-0.48c0.37-0.24,0.96-0.55,1.69-0.52
												c0.75,0.04,1.3,0.53,1.49,0.96c0.2,0.45,0.07,0.75,0.04,0.74c-0.06,0-0.02-0.29-0.24-0.63c-0.21-0.33-0.7-0.71-1.31-0.74
												c-0.62-0.03-1.17,0.21-1.56,0.4C108.96,203.44,108.72,203.57,108.69,203.53z"/>
										</g>
									</g>
								</g>
							</g>
							<g>
								<g>
									<g>
										<g>
											<path class="st15" d="M111.5,206.94c-0.05,0.02-0.14-0.18-0.36-0.45c-0.21-0.26-0.56-0.59-1.03-0.77
												c-0.47-0.19-0.95-0.19-1.28-0.14c-0.34,0.05-0.54,0.12-0.57,0.08c-0.02-0.03,0.16-0.19,0.52-0.31
												c0.35-0.11,0.9-0.15,1.45,0.06c0.55,0.22,0.92,0.62,1.1,0.95C111.51,206.69,111.53,206.93,111.5,206.94z"/>
										</g>
									</g>
								</g>
							</g>
						</g>
					</g>
				</g>
				<g>
					<path class="st8" d="M151.82,185.1l-6.03,28.59l15.99,9.61l6.14-17.57C167.92,205.73,165.38,184.39,151.82,185.1z"/>
				</g>
				<g>
					<g>
						<path class="st0" d="M160.44,185.6c0.01,0.02-0.13,0.1-0.41,0.26c-0.28,0.15-0.68,0.37-1.22,0.64
							c-1.06,0.54-2.61,1.3-4.56,2.17c-3.89,1.72-9.44,3.92-15.9,5.01c-6.46,1.1-12.5,0.59-16.62-0.56
							c-2.07-0.56-3.69-1.19-4.77-1.71c-0.55-0.24-0.95-0.48-1.23-0.62c-0.28-0.15-0.42-0.24-0.41-0.25
							c0.02-0.04,0.62,0.24,1.72,0.69c1.1,0.46,2.72,1.03,4.78,1.54c4.1,1.04,10.05,1.49,16.44,0.4c6.39-1.08,11.92-3.2,15.84-4.83
							c1.96-0.82,3.54-1.53,4.62-2.01C159.82,185.83,160.42,185.57,160.44,185.6z"/>
					</g>
				</g>
				<g>
					<g>
						<path class="st0" d="M164.65,188.76c0.01,0.02-0.14,0.13-0.44,0.33c-0.35,0.23-0.79,0.51-1.33,0.85
							c-0.58,0.37-1.29,0.81-2.16,1.25c-0.86,0.45-1.82,1.01-2.95,1.5c-0.56,0.26-1.14,0.52-1.75,0.8
							c-0.61,0.28-1.27,0.51-1.94,0.77c-1.33,0.56-2.81,1.01-4.35,1.51c-3.11,0.91-6.6,1.69-10.32,2.15
							c-3.72,0.42-7.3,0.48-10.54,0.32c-1.62-0.13-3.16-0.22-4.58-0.45c-0.71-0.11-1.41-0.18-2.06-0.3
							c-0.65-0.13-1.28-0.25-1.89-0.37c-1.21-0.21-2.27-0.53-3.21-0.77c-0.95-0.23-1.74-0.49-2.39-0.72
							c-0.6-0.21-1.09-0.38-1.49-0.52c-0.34-0.12-0.51-0.2-0.51-0.21s0.19,0.02,0.54,0.11c0.4,0.11,0.9,0.25,1.51,0.42
							c0.65,0.2,1.45,0.43,2.4,0.63c0.94,0.21,2.01,0.51,3.21,0.69c0.6,0.11,1.23,0.22,1.88,0.34c0.65,0.11,1.34,0.17,2.05,0.27
							c1.42,0.21,2.95,0.29,4.55,0.4c3.21,0.13,6.76,0.06,10.45-0.36c3.69-0.46,7.15-1.22,10.24-2.09c1.53-0.49,3-0.92,4.33-1.45
							c0.67-0.26,1.32-0.48,1.93-0.74c0.61-0.27,1.19-0.52,1.75-0.77c1.13-0.46,2.09-1,2.96-1.42c0.87-0.42,1.6-0.83,2.19-1.17
							c0.56-0.31,1.01-0.56,1.37-0.76C164.47,188.83,164.64,188.74,164.65,188.76z"/>
					</g>
				</g>
				<g>
					<g>
						<path class="st5" d="M161.78,223.3c-0.02,0.03-0.47-0.21-1.3-0.66c-0.89-0.5-2.07-1.16-3.52-1.98
							c-3.05-1.76-7.22-4.16-12.03-6.93l-0.16-0.09l0.03-0.17c0.43-2.14,0.89-4.43,1.37-6.79c0.73-3.56,1.42-6.94,2.05-10.03
							c0.33-1.54,0.6-3.01,0.9-4.38c0.32-1.37,0.72-2.64,1.28-3.72c1.1-2.19,2.86-3.38,4.13-3.79c0.65-0.21,1.18-0.26,1.53-0.25
							c0.35,0.01,0.54,0.04,0.54,0.06c0.01,0.07-0.76-0.07-2,0.39c-1.21,0.45-2.86,1.64-3.87,3.76c-0.52,1.05-0.9,2.29-1.19,3.64
							c-0.27,1.38-0.55,2.84-0.85,4.38c-0.62,3.09-1.3,6.48-2.01,10.04c-0.48,2.36-0.95,4.65-1.38,6.79l-0.12-0.26
							c4.77,2.83,8.91,5.29,11.93,7.09c1.42,0.87,2.58,1.57,3.45,2.1C161.37,222.99,161.79,223.27,161.78,223.3z"/>
					</g>
				</g>
			</g>
			<g>
				<g>
					<path class="st5" d="M166.67,204.88c0.06,0,0.08,1.02-0.08,2.67c-0.16,1.64-0.51,3.9-1.15,6.33c-0.64,2.44-1.45,4.57-2.12,6.08
						c-0.67,1.51-1.18,2.39-1.24,2.36c-0.07-0.03,0.32-0.97,0.9-2.5c0.58-1.53,1.32-3.66,1.96-6.07c0.63-2.41,1.04-4.63,1.29-6.25
						C166.48,205.89,166.6,204.88,166.67,204.88z"/>
				</g>
			</g>
		</g>
		<g>
			<g>
				<g>
					<g>
						<path class="st6" d="M79.92,363.91l-0.18,15.27c0,0-15.58,4.95-15.88,7.77l29.59,1.41l1.25-23.78L79.92,363.91z"/>
					</g>
					<g>
						<g>
							<path class="st1" d="M88.95,378.32c0.57,0.18,0.93,0.85,0.77,1.42c-0.16,0.57-0.83,0.95-1.4,0.78
								c-0.57-0.17-1.03-0.96-0.81-1.51c0.22-0.55,1.04-0.95,1.55-0.65"/>
						</g>
					</g>
					<g>
						<path class="st1" d="M93.44,388.34l0.03-2.4l-28.38-0.45c0,0-1.34,0.51-1.24,1.45L93.44,388.34z"/>
					</g>
					<g>
						<g>
							<path class="st5" d="M79.27,379c0,0.14,0.72,0.24,1.41,0.74c0.7,0.48,1.04,1.12,1.17,1.07c0.13-0.02-0.04-0.9-0.88-1.48
								C80.13,378.73,79.24,378.86,79.27,379z"/>
						</g>
					</g>
					<g>
						<g>
							<path class="st5" d="M76.1,380.13c-0.04,0.14,0.57,0.41,1.04,1.05c0.48,0.62,0.57,1.29,0.72,1.29
								c0.13,0.03,0.27-0.81-0.31-1.59C76.96,380.1,76.11,380,76.1,380.13z"/>
						</g>
					</g>
					<g>
						<g>
							<path class="st5" d="M74.16,383.77c0.13,0.04,0.37-0.68,0.03-1.48c-0.33-0.81-0.99-1.16-1.06-1.04
								c-0.09,0.11,0.33,0.56,0.59,1.23C74.01,383.13,74.02,383.74,74.16,383.77z"/>
						</g>
					</g>
					<g>
						<g>
							<path class="st5" d="M79.69,375.52c0.05,0.13,0.73-0.03,1.54,0.06c0.82,0.08,1.44,0.38,1.52,0.26
								c0.09-0.1-0.51-0.66-1.47-0.76C80.33,374.98,79.63,375.41,79.69,375.52z"/>
						</g>
					</g>
				</g>
				<g class="st16">
					<polygon points="79.89,366.93 79.85,369.65 94.4,370.21 94.53,367.76 					"/>
				</g>
				<g>
					<g>
						<path class="st5" d="M79.79,372.44c0,0.06,0.56,0.18,1.48,0.06c0.46-0.06,1-0.18,1.57-0.4c0.29-0.11,0.58-0.25,0.87-0.41
							c0.14-0.08,0.31-0.16,0.46-0.33c0.17-0.14,0.28-0.52,0.1-0.77c-0.14-0.23-0.4-0.35-0.62-0.36c-0.22-0.02-0.4,0.02-0.56,0.05
							c-0.33,0.06-0.65,0.16-0.94,0.27c-0.58,0.23-1.05,0.53-1.41,0.83c-0.72,0.6-0.98,1.13-0.93,1.16
							c0.06,0.05,0.42-0.39,1.14-0.88c0.36-0.24,0.82-0.49,1.36-0.68c0.27-0.09,0.56-0.17,0.86-0.22c0.32-0.07,0.58-0.06,0.66,0.09
							c0.03,0.05,0.03,0.08-0.04,0.16c-0.07,0.08-0.2,0.16-0.34,0.24c-0.27,0.16-0.54,0.29-0.8,0.41c-0.53,0.23-1.03,0.38-1.46,0.48
							C80.35,372.35,79.79,372.37,79.79,372.44z"/>
					</g>
				</g>
				<g>
					<g>
						<path class="st5" d="M79.97,372.66c0.05,0.02,0.36-0.48,0.46-1.41c0.05-0.46,0.03-1.03-0.13-1.63
							c-0.08-0.3-0.19-0.61-0.33-0.92c-0.16-0.3-0.35-0.7-0.91-0.79c-0.29-0.02-0.55,0.19-0.64,0.38c-0.11,0.2-0.13,0.37-0.18,0.54
							c-0.07,0.34-0.08,0.68-0.05,1c0.06,0.63,0.3,1.17,0.56,1.56c0.54,0.79,1.14,1,1.15,0.95c0.05-0.07-0.44-0.37-0.85-1.13
							c-0.2-0.37-0.37-0.86-0.4-1.41c-0.02-0.28,0-0.57,0.07-0.85c0.06-0.31,0.19-0.56,0.31-0.52c0.15,0,0.39,0.25,0.5,0.51
							c0.14,0.27,0.25,0.55,0.33,0.82c0.16,0.54,0.22,1.06,0.22,1.49C80.07,372.1,79.89,372.63,79.97,372.66z"/>
					</g>
				</g>
			</g>
			<g>
				<g>
					<path class="st5" d="M140.22,253.4c0,0-46.21-19.38-60.52-20.21c-8.97-0.52-15.76,5.24-14.54,14.53
						c0.61,4.65,13.38,59.01,13.38,59.01l19.48-8.9l-9.36-37.59l37.96,18.45L140.22,253.4z"/>
				</g>
				<g>
					<g>
						<path class="st6" d="M82.83,250.73c-0.15,0.13,1.38,2.1,2.99,4.71c1.62,2.61,2.7,4.86,2.88,4.78c0.17-0.06-0.65-2.48-2.3-5.14
							C84.76,252.42,82.96,250.61,82.83,250.73z"/>
					</g>
				</g>
				<g>
					<g>
						<path class="st6" d="M79.05,252.89c-0.1,0.17,2.24,1.65,4.97,3.67c2.74,2.01,4.85,3.79,4.98,3.65c0.12-0.13-1.8-2.16-4.58-4.2
							C81.65,253.96,79.13,252.73,79.05,252.89z"/>
					</g>
				</g>
			</g>
			<g>
				<g>
					<path class="st5" d="M176.27,265.06c0,0-5.81,7.49-11.36,9.54c-6.96,2.57-58.46,26.87-58.46,26.87s-9.34,69.38-8.6,66.49
						l-21.55-0.52l2.34-63.91c0.28-8.19,6.84-17.58,13.88-21.76l47.68-28.37L176.27,265.06z"/>
				</g>
				<g>
					<g>
						<path class="st6" d="M78.24,315.22c0.02,0,0.05-0.3,0.09-0.88c0.03-0.64,0.08-1.48,0.13-2.51c0.12-2.18,0.24-5.35,0.85-9.19
							c0.64-3.81,1.8-8.41,4.66-12.67c1.42-2.12,3.32-4.04,5.54-5.72c2.22-1.68,4.72-3.16,7.31-4.63
							c10.37-5.94,19.32-12,25.94-16.15c3.3-2.1,5.98-3.77,7.84-4.91c0.88-0.54,1.59-0.98,2.14-1.32c0.49-0.31,0.74-0.48,0.73-0.5
							c-0.01-0.02-0.28,0.11-0.79,0.38c-0.51,0.27-1.26,0.67-2.21,1.21c-1.91,1.07-4.63,2.68-7.96,4.73
							c-6.69,4.05-15.68,10.05-26.02,15.97c-2.59,1.47-5.12,2.96-7.38,4.69c-2.26,1.72-4.21,3.71-5.66,5.9
							c-2.9,4.4-4.03,9.09-4.61,12.95c-0.55,3.89-0.6,7.07-0.64,9.25c0,1.04,0,1.87,0,2.52C78.2,314.92,78.22,315.22,78.24,315.22z"
							/>
					</g>
				</g>
			</g>
			<g>
				<g>
					<path class="st6" d="M157.25,272.37c0.08-0.09-0.55-0.67-1.32-1.78c-0.77-1.1-1.63-2.78-2.04-4.78
						c-0.4-2.01-0.27-3.89,0.02-5.2c0.28-1.32,0.63-2.1,0.53-2.15c-0.06-0.04-0.57,0.68-0.99,2.03c-0.42,1.34-0.65,3.33-0.22,5.46
						c0.43,2.12,1.41,3.87,2.32,4.94C156.46,271.97,157.21,272.43,157.25,272.37z"/>
				</g>
			</g>
			<g>
				<g>
					<path class="st6" d="M84.23,367.43c0.01,0,0.03-0.12,0.07-0.35c0.03-0.27,0.08-0.62,0.13-1.05c0.1-0.97,0.25-2.33,0.43-4.04
						c0.35-3.56,0.85-8.63,1.46-14.87c0.3-3.15,0.63-6.58,0.98-10.27c0.36-3.69,0.73-7.64,1.02-11.8c0.32-4.15,0.72-8.51,1.47-12.96
						c0.78-4.44,1.94-9.01,3.96-13.34c1.98-4.35,4.79-8.15,7.83-11.47c3.08-3.3,6.41-6.13,9.76-8.6c6.7-4.93,13.31-8.53,18.76-11.71
						c5.47-3.14,9.83-5.82,12.73-7.84c1.46-1,2.56-1.81,3.3-2.38c0.34-0.27,0.61-0.48,0.83-0.65c0.18-0.15,0.28-0.23,0.27-0.24
						c-0.01-0.01-0.11,0.05-0.31,0.19c-0.23,0.16-0.51,0.35-0.87,0.6c-0.76,0.53-1.89,1.31-3.36,2.27
						c-2.94,1.95-7.32,4.55-12.82,7.64c-5.47,3.12-12.12,6.68-18.89,11.62c-3.38,2.47-6.75,5.31-9.88,8.65
						c-3.08,3.36-5.93,7.21-7.95,11.64c-2.05,4.41-3.22,9.03-4,13.51c-0.75,4.49-1.14,8.87-1.44,13.03
						c-0.27,4.16-0.62,8.11-0.95,11.8c-0.32,3.69-0.62,7.13-0.89,10.28c-0.52,6.25-0.95,11.32-1.25,14.89
						c-0.13,1.72-0.23,3.07-0.3,4.05c-0.03,0.43-0.05,0.78-0.06,1.06C84.21,367.31,84.21,367.43,84.23,367.43z"/>
				</g>
			</g>
		</g>
		<g>
			<g>
				<path class="st5" d="M134.97,143.34c-1.33-3.77-5.75-6.15-9.63-5.18c-0.89,0.22-1.77,0.6-2.68,0.58
					c-1.13-0.02-2.15-0.64-3.26-0.86c-2.38-0.48-4.98,1.21-5.52,3.58c-1.89-0.39-3.99-0.12-5.5,1.09c-1.5,1.21-2.2,3.48-1.28,5.18
					c0.39,0.73,1.03,1.31,1.39,2.06c0.59,1.23,0.32,2.71,0.73,4.01c0.61,1.93,2.65,3.12,4.66,3.35c2.01,0.23,4.02-0.32,5.97-0.86"/>
			</g>
			<g>
				<g>
					<g>
						<g>
							<g>
								<g>
									<g>
										<g>
											<g>
												<g>
													<path class="st14" d="M125.69,182.89c-0.25-1.93-0.42-3.29-0.42-3.29s-6.44-0.04-9.04-8.03
														c-1.29-3.97-2.15-10.68-2.67-16.19c-0.47-4.96,3.28-9.32,8.26-9.58l17.12-0.9l0.37,2.65l4.51,32.92
														c0.69,5.02-2.84,9.64-7.87,10.3l0,0C130.94,191.42,126.35,187.89,125.69,182.89z"/>
												</g>
											</g>
										</g>
									</g>
									<g>
										<g>
											<g>
												<g>
													<g>
														<path class="st5" d="M115.98,160.1c0.07,0.56,0.6,0.96,1.18,0.9c0.58-0.06,1-0.56,0.93-1.12
															c-0.07-0.56-0.6-0.96-1.18-0.9C116.33,159.04,115.91,159.54,115.98,160.1z"/>
													</g>
												</g>
											</g>
										</g>
										<g>
											<g>
												<g>
													<g>
														<g>
															<path class="st5" d="M115.56,158.62c0.15,0.12,0.85-0.6,1.98-0.78c1.13-0.19,2.05,0.26,2.15,0.1
																c0.05-0.07-0.12-0.3-0.52-0.5c-0.4-0.21-1.04-0.36-1.75-0.25c-0.7,0.12-1.25,0.47-1.55,0.79
																C115.56,158.3,115.48,158.57,115.56,158.62z"/>
														</g>
													</g>
												</g>
											</g>
										</g>
									</g>
									<g>
										<g>
											<g>
												<g>
													<g>
														<path class="st5" d="M126.72,158.28c0.07,0.56,0.6,0.96,1.18,0.9c0.58-0.06,1-0.56,0.93-1.12
															c-0.07-0.56-0.6-0.96-1.18-0.9C127.07,157.22,126.65,157.72,126.72,158.28z"/>
													</g>
												</g>
											</g>
										</g>
										<g>
											<g>
												<g>
													<g>
														<g>
															<path class="st5" d="M126.7,157.06c0.15,0.12,0.86-0.6,1.99-0.78c1.13-0.19,2.05,0.26,2.15,0.1
																c0.05-0.07-0.12-0.3-0.52-0.5c-0.4-0.21-1.04-0.36-1.75-0.25c-0.7,0.12-1.25,0.47-1.55,0.79
																C126.7,156.74,126.63,157.01,126.7,157.06z"/>
														</g>
													</g>
												</g>
											</g>
										</g>
									</g>
									<g>
										<g>
											<g>
												<g>
													<g>
														<path class="st5" d="M123.93,166.1c-0.01-0.07-0.73-0.07-1.89-0.04c-0.29,0.02-0.58,0-0.66-0.19
															c-0.1-0.2-0.03-0.53,0.06-0.89c0.16-0.74,0.33-1.52,0.5-2.33c0.69-3.32,1.14-6.03,1-6.05
															c-0.13-0.03-0.8,2.64-1.49,5.96c-0.16,0.82-0.32,1.6-0.47,2.34c-0.06,0.35-0.19,0.75,0.03,1.16
															c0.11,0.2,0.35,0.33,0.54,0.35c0.19,0.03,0.36,0,0.5-0.01C123.22,166.27,123.94,166.16,123.93,166.1z"/>
													</g>
												</g>
											</g>
										</g>
									</g>
									<g>
										<g>
											<g>
												<g>
													<path class="st15" d="M125.28,179.59c0,0,5.57-0.52,10.5-4.67c0,0-1.77,6.05-10.08,6.59L125.28,179.59z"/>
												</g>
											</g>
										</g>
									</g>
									<g>
										<g>
											<g>
												<g>
													<g>
														<path class="st5" d="M127.38,166.35c-0.19,0.02,0.01,1.25-0.9,2.28c-0.91,1.04-2.24,1.11-2.22,1.28
															c0,0.08,0.33,0.19,0.88,0.12c0.54-0.07,1.31-0.37,1.87-1c0.56-0.64,0.72-1.39,0.68-1.9
															C127.65,166.61,127.46,166.33,127.38,166.35z"/>
													</g>
												</g>
											</g>
										</g>
									</g>
								</g>
							</g>
						</g>
						<g>
							<g>
								<g>
									<g>
										<path class="st5" d="M125.7,152.68c0.16,0.29,1.27-0.04,2.62-0.09c1.35-0.08,2.48,0.14,2.61-0.16
											c0.06-0.14-0.17-0.4-0.65-0.63c-0.48-0.23-1.2-0.4-2.01-0.36c-0.81,0.04-1.52,0.28-1.97,0.55
											C125.84,152.26,125.63,152.54,125.7,152.68z"/>
									</g>
								</g>
							</g>
						</g>
						<g>
							<g>
								<g>
									<g>
										<path class="st5" d="M115.45,155.28c0.24,0.22,0.98-0.17,1.91-0.33c0.93-0.19,1.76-0.1,1.9-0.4
											c0.06-0.14-0.11-0.38-0.49-0.57c-0.38-0.19-0.98-0.3-1.62-0.17c-0.64,0.12-1.16,0.44-1.44,0.76
											C115.41,154.89,115.34,155.17,115.45,155.28z"/>
									</g>
								</g>
							</g>
						</g>
						<g>
							<g>
								<g>
									<g>
										<path class="st5" d="M112.71,151.78c0,0,4.53,1.53,9.73-1.95c3.41-2.28,7.55-3.71,8.58-3.09c1.03,0.61,1.7,4.35,5.45,4.98
											c0,0,0.66,7.2,3.49,6.58c2.01-0.44,0.84-8.38-0.01-12.91c-0.34-1.81-1.89-3.15-3.74-3.22l-5.27-0.2l-6.58,1.84l-7.06,1.92
											l-5.37,2.23L112.71,151.78z"/>
									</g>
								</g>
							</g>
						</g>
					</g>
					<g>
						<g>
							<g>
								<g>
									<g>
										<g>
											<path class="st14" d="M139.33,155.39c0.11-0.08,4.48-2.37,5.29,2.4c0.81,4.77-4.15,4.6-4.18,4.46
												C140.4,162.11,139.33,155.39,139.33,155.39z"/>
										</g>
									</g>
								</g>
							</g>
						</g>
						<g>
							<g>
								<g>
									<g>
										<g>
											<g>
												<path class="st15" d="M141.58,160.19c0.02-0.02,0.09,0.04,0.24,0.08c0.15,0.04,0.39,0.04,0.62-0.09
													c0.47-0.27,0.76-1.14,0.64-2.01c-0.06-0.44-0.22-0.83-0.43-1.15c-0.2-0.32-0.47-0.53-0.73-0.53
													c-0.26-0.02-0.42,0.17-0.45,0.31c-0.04,0.14,0.01,0.23-0.02,0.25c-0.01,0.01-0.12-0.06-0.11-0.27
													c0-0.1,0.04-0.22,0.14-0.33c0.1-0.11,0.26-0.19,0.44-0.2c0.37-0.04,0.76,0.25,0.99,0.59c0.25,0.35,0.44,0.79,0.51,1.28
													c0.13,0.97-0.21,1.95-0.86,2.26c-0.32,0.14-0.62,0.09-0.78,0C141.61,160.31,141.57,160.21,141.58,160.19z"/>
											</g>
										</g>
									</g>
								</g>
							</g>
						</g>
					</g>
				</g>
			</g>
			<g>
				<g>
					<path class="st6" d="M115,139.69c0.04-0.02,0.17,0.25,0.5,0.64c0.33,0.39,0.93,0.86,1.8,1.16c0.87,0.31,1.98,0.39,3.18,0.14
						c1.2-0.23,2.47-0.74,3.85-1.22c1.37-0.48,2.78-0.82,4.09-0.73c1.31,0.06,2.45,0.66,3.1,1.4c0.68,0.73,0.95,1.54,0.95,2.09
						c0.02,0.55-0.12,0.84-0.14,0.83c-0.05-0.01,0.02-0.3-0.06-0.81c-0.07-0.5-0.36-1.22-1.01-1.85c-0.64-0.65-1.65-1.14-2.87-1.17
						c-1.21-0.06-2.54,0.27-3.89,0.74c-1.35,0.47-2.66,0.99-3.93,1.2c-1.26,0.24-2.48,0.11-3.39-0.27
						c-0.92-0.36-1.53-0.92-1.83-1.38C115.03,140.01,114.97,139.7,115,139.69z"/>
				</g>
			</g>
			<g>
				<g>
					<path class="st6" d="M131.11,144.26c-0.04,0.03-0.24-0.25-0.74-0.6c-0.49-0.35-1.32-0.68-2.4-0.71
						c-1.08-0.05-2.34,0.26-3.64,0.89c-1.31,0.6-2.68,1.49-4.34,2.03c-3.35,1.08-6.64,0.2-8.54-0.93c-0.98-0.56-1.67-1.16-2.1-1.61
						c-0.43-0.46-0.63-0.74-0.6-0.76c0.08-0.08,0.94,1.04,2.88,2.05c1.89,1.01,5.03,1.79,8.21,0.76c1.57-0.51,2.94-1.37,4.3-1.97
						c1.34-0.62,2.72-0.93,3.86-0.82c1.14,0.08,2.03,0.5,2.5,0.92C130.98,143.92,131.13,144.25,131.11,144.26z"/>
				</g>
			</g>
		</g>
		<g>
			<path class="st8" d="M95.65,202.8"/>
		</g>
		<g>
			<g>
				<g>
					<g>
						<g>
							<path class="st14" d="M116.3,225.52l-23.22-19.79l-7.66,1.73c0,0,8.07,16.78,13.91,22.93c0,0,5.77,7.73,15.29,4.39
								C124.13,231.43,116.3,225.52,116.3,225.52z"/>
						</g>
					</g>
				</g>
			</g>
			<g>
				<g>
					<g>
						<g>
							<path class="st6" d="M91.32,183.93h-9.87c-1.49,0-2.83,1.73-2.29,3.15l9.93,19.33c0.38,0.75,1.16,1.22,2,1.22l12.03-0.03
								c1.38-0.19,1.88-1.72,1.31-2.55l-9.58-18.93C94.2,184.79,92.83,183.93,91.32,183.93z"/>
						</g>
					</g>
				</g>
				<g>
					<g>
						<g>
							<path class="st5" d="M90.66,185.1h-9.87c-1.24,0-2.04,1.3-1.47,2.4L89,206.41c0.38,0.75,1.16,1.22,2,1.22h11.9
								c0.73,0,1.2-0.76,0.87-1.41l-9.58-18.93C93.53,185.95,92.16,185.1,90.66,185.1z"/>
						</g>
					</g>
				</g>
			</g>
			<g>
				<g>
					<g>
						<g>
							<path class="st14" d="M89.82,193.02l-6.01,2.4l-1.29,4.84l2.89,7.2L96.03,209l-3.11-3.18l0.4-2.77c0,0,2.96-0.93,3.03-1.38
								c0.07-0.45-0.37-1.97-0.82-2.05c-0.45-0.07-3.56,1.08-3.56,1.08s3.68-2.91,3.57-3.38c-0.1-0.47-0.5-1.66-1.23-1.8
								c-0.73-0.13-6.67,2.66-6.67,2.66l-0.96,2.2l-0.84-3.51C85.85,196.89,91.12,195.41,89.82,193.02z"/>
						</g>
					</g>
				</g>
				<g>
					<g>
						<g>
							<g>
								<path class="st15" d="M90.58,204.36c-0.04,0.01-0.15-0.21-0.2-0.6c-0.06-0.39-0.03-0.95,0.18-1.52
									c0.21-0.57,0.56-1.01,0.85-1.27c0.3-0.26,0.52-0.35,0.54-0.32c0.06,0.07-0.72,0.63-1.1,1.7
									C90.44,203.41,90.67,204.35,90.58,204.36z"/>
							</g>
						</g>
					</g>
				</g>
				<g>
					<g>
						<g>
							<g>
								<path class="st15" d="M87.72,203.31c-0.04-0.02,0.18-0.59,0.24-1.57c0.05-0.49,0.07-1.1,0.3-1.74
									c0.12-0.32,0.29-0.65,0.55-0.93c0.27-0.28,0.62-0.47,0.98-0.62c1.44-0.52,2.73-0.94,3.68-1.25c0.95-0.3,1.54-0.47,1.55-0.43
									c0.01,0.04-0.55,0.28-1.48,0.63c-0.92,0.36-2.22,0.82-3.63,1.33c-0.34,0.14-0.65,0.31-0.88,0.54
									c-0.23,0.23-0.39,0.53-0.5,0.82c-0.23,0.59-0.28,1.18-0.35,1.67C88.06,202.76,87.76,203.34,87.72,203.31z"/>
							</g>
						</g>
					</g>
				</g>
				<g>
					<g>
						<g>
							<g>
								<path class="st15" d="M86.34,202.23c-0.08-0.01-0.07-0.54,0.04-1.18c0.11-0.64,0.26-1.15,0.34-1.13
									c0.08,0.01,0.07,0.54-0.04,1.18C86.58,201.74,86.43,202.24,86.34,202.23z"/>
							</g>
						</g>
					</g>
				</g>
			</g>
			<g>
				<g>
					<g>
						<path class="st7" d="M86.18,188.75c0,0.69,0.56,1.26,1.26,1.26c0.69,0,1.26-0.56,1.26-1.26c0-0.69-0.56-1.26-1.26-1.26
							C86.74,187.49,86.18,188.05,86.18,188.75z"/>
					</g>
				</g>
			</g>
		</g>
	</g>
</g>
<g id="Plant">
	<g>
		<g>
			<g>
				<path class="st8" d="M51.6,379.36c3.16,0.86,5.74,3.28,7.28,6.17c1.54,2.89,2.12,6.2,2.23,9.47c0.2,6.33-2.42,13.13-5.51,18.66
					c-5.91-3.81-8.28-11.62-9.23-15.65C44.87,391.63,46.02,379.19,51.6,379.36"/>
			</g>
		</g>
		<g>
			<g>
				<path class="st8" d="M63.19,423.05c-1.35-3.4-0.45-7.47,1.9-10.27c2.35-2.8,5.98-4.37,9.62-4.62c1.69-0.12,3.56,0.11,4.71,1.34
					c1.08,1.15,1.24,2.96,0.72,4.45c-0.52,1.49-1.63,2.71-2.83,3.73C73.19,421.21,68.55,423.85,63.19,423.05"/>
			</g>
		</g>
		<g>
			<g>
				<g>
					<path class="st5" d="M59.25,443.12c-0.03,0-0.03-0.47,0-1.31c0.03-0.92,0.08-2.12,0.13-3.55c0.16-2.97,0.3-7.22,1.96-11.57
						c1.63-4.33,4.3-7.73,6.7-9.58c1.19-0.94,2.26-1.55,3.02-1.9c0.38-0.19,0.69-0.29,0.9-0.37c0.21-0.08,0.32-0.11,0.33-0.09
						c0.05,0.1-1.75,0.7-4.04,2.62c-2.3,1.87-4.87,5.23-6.48,9.49c-1.63,4.25-1.83,8.45-2.07,11.42c-0.11,1.49-0.19,2.71-0.28,3.54
						C59.34,442.66,59.28,443.12,59.25,443.12z"/>
				</g>
			</g>
		</g>
		<g>
			<g>
				<g>
					<path class="st5" d="M51.56,388.91c0.02,0,0.07,0.19,0.15,0.55c0.08,0.41,0.19,0.94,0.33,1.59c0.28,1.38,0.65,3.39,1.1,5.87
						c0.89,4.97,2.02,11.84,3.09,19.46c1.07,7.62,1.89,14.55,2.41,19.56c0.26,2.51,0.46,4.54,0.57,5.95
						c0.05,0.66,0.09,1.2,0.12,1.62c0.02,0.37,0.03,0.57,0.01,0.57c-0.02,0-0.05-0.19-0.1-0.56c-0.05-0.42-0.12-0.95-0.21-1.61
						c-0.18-1.46-0.42-3.47-0.72-5.93c-0.6-5.01-1.47-11.92-2.54-19.54c-1.08-7.62-2.15-14.5-2.96-19.47
						c-0.4-2.45-0.72-4.45-0.95-5.89c-0.1-0.66-0.18-1.19-0.24-1.61C51.56,389.11,51.54,388.91,51.56,388.91z"/>
				</g>
			</g>
		</g>
		<g>
			<g>
				<path class="st8" d="M54.67,428.16c-2.29-7.36-8.36-13.43-15.72-15.73c-1.87-0.58-4.24-0.8-5.49,0.71
					c-1.25,1.52-0.59,3.81,0.38,5.52c4.03,7.12,12.7,11.29,20.78,10.02"/>
			</g>
		</g>
		<g>
			<g>
				<g>
					<path class="st5" d="M40.67,418.22c0.01-0.03,0.43,0.09,1.18,0.32c0.38,0.12,0.84,0.26,1.35,0.49
						c0.51,0.23,1.13,0.43,1.75,0.77c0.63,0.32,1.33,0.66,2.03,1.11c0.73,0.41,1.45,0.93,2.21,1.49c1.49,1.14,3.02,2.54,4.4,4.22
						c1.36,1.69,2.43,3.47,3.24,5.16c0.38,0.86,0.74,1.67,0.99,2.47c0.29,0.78,0.47,1.54,0.65,2.23c0.2,0.68,0.26,1.32,0.36,1.87
						c0.11,0.55,0.14,1.04,0.17,1.43c0.06,0.79,0.07,1.22,0.04,1.23c-0.1,0.01-0.18-1.74-0.88-4.45c-0.19-0.67-0.38-1.41-0.69-2.18
						c-0.26-0.78-0.63-1.58-1.01-2.42c-0.82-1.65-1.88-3.39-3.22-5.05c-1.35-1.65-2.85-3.03-4.3-4.17c-0.74-0.55-1.44-1.08-2.15-1.5
						c-0.68-0.46-1.36-0.81-1.98-1.15C42.32,418.8,40.63,418.31,40.67,418.22z"/>
				</g>
			</g>
		</g>
	</g>
</g>
</svg>
